<svg xmlns="http://www.w3.org/2000/svg" width="18.158" height="18" viewBox="0 0 18.158 18">
  <g id="_18_1_" data-name="18+ (1)" transform="translate(-0.014 0)">
    <path id="路径_666" data-name="路径 666" d="M8.7,22.222A8.694,8.694,0,1,1,11.138,5.18a.506.506,0,1,1-.283.971,7.675,7.675,0,1,0,5.292,5.481.505.505,0,0,1,.98-.249A8.7,8.7,0,0,1,8.7,22.223Z" transform="translate(0 -4.222)" fill="#000"/>
    <path id="路径_667" data-name="路径 667" d="M117.672,5.727a.505.505,0,0,1-.505-.505V.506a.505.505,0,1,1,1.011,0V5.221a.505.505,0,0,1-.506.506Z" transform="translate(-102.363)" fill="#000"/>
    <path id="路径_668" data-name="路径 668" d="M103.721,19.678H99a.505.505,0,1,1,0-1.011h4.716a.505.505,0,1,1,0,1.011Z" transform="translate(-86.054 -16.309)" fill="#000"/>
    <g id="组_489" data-name="组 489" transform="translate(3.014 5.734)">
      <path id="路径_669" data-name="路径 669" d="M26.064,52.121V47.6a4.064,4.064,0,0,1-1.7.968.5.5,0,0,1-.37-.166.535.535,0,0,1-.161-.385.435.435,0,0,1,.159-.372,3.533,3.533,0,0,1,.561-.308,4.189,4.189,0,0,0,.96-.6,4.073,4.073,0,0,0,.638-.7,5.768,5.768,0,0,1,.363-.477.434.434,0,0,1,.318-.089.509.509,0,0,1,.422.2.89.89,0,0,1,.159.561v5.684q0,1-.68,1a.624.624,0,0,1-.486-.2A.869.869,0,0,1,26.064,52.121Z" transform="translate(-23.834 -45.469)" fill="#000"/>
      <path id="路径_670" data-name="路径 670" d="M63.853,47.3a1.755,1.755,0,0,1,.271-.936,1.911,1.911,0,0,1,.794-.7,2.694,2.694,0,0,1,1.224-.263,3.186,3.186,0,0,1,1.036.154,2.115,2.115,0,0,1,.745.425,1.739,1.739,0,0,1,.442.611,1.833,1.833,0,0,1,.144.722,1.549,1.549,0,0,1-.251.869,1.824,1.824,0,0,1-.747.625,2.1,2.1,0,0,1,.7.429,1.751,1.751,0,0,1,.42.616,2.057,2.057,0,0,1,.141.777,2.176,2.176,0,0,1-.3,1.134,2.059,2.059,0,0,1-.888.8,3.1,3.1,0,0,1-1.38.288,3.173,3.173,0,0,1-1.41-.288,2.037,2.037,0,0,1-.884-.792,2.177,2.177,0,0,1-.3-1.129,1.822,1.822,0,0,1,1.261-1.832A1.575,1.575,0,0,1,63.853,47.3Zm3.561,3.286a1.376,1.376,0,0,0-.159-.675,1.085,1.085,0,0,0-.447-.442,1.348,1.348,0,0,0-.647-.154,1.162,1.162,0,0,0-.849.337,1.265,1.265,0,0,0-.343.943,1.4,1.4,0,0,0,.161.682,1.156,1.156,0,0,0,.44.456,1.275,1.275,0,0,0,1.246,0,1.152,1.152,0,0,0,.437-.462,1.434,1.434,0,0,0,.158-.687ZM66.174,46.35a1.007,1.007,0,0,0-.752.29,1.02,1.02,0,0,0-.286.747.932.932,0,0,0,.293.7,1.046,1.046,0,0,0,.754.28,1.159,1.159,0,0,0,.424-.074.976.976,0,0,0,.328-.206.906.906,0,0,0,.211-.313,1.04,1.04,0,0,0,.074-.4,1.054,1.054,0,0,0-.129-.526.952.952,0,0,0-.37-.367,1.1,1.1,0,0,0-.55-.134Z" transform="translate(-58.585 -45.401)" fill="#000"/>
    </g>
  </g>
</svg>
