<svg id="ico1" xmlns="http://www.w3.org/2000/svg" width="96" height="31" viewBox="0 0 96 31">
  <defs>
    <style>
      .cls-1 {
        fill: #292929;
        fill-rule: evenodd;
      }
    </style>
  </defs>
  <path id="形状_2184_拷贝" data-name="形状 2184 拷贝" class="cls-1" d="M1693.5,3842a12.171,12.171,0,0,1-8.5-3.49V3841h-4v-30h4v8.49a12.171,12.171,0,0,1,8.5-3.49A13.01,13.01,0,0,1,1693.5,3842Zm0.5-22a8.263,8.263,0,0,0-8,8.5c0,4.69,3.58,9.5,8,9.5s8-4.81,8-9.5A8.263,8.263,0,0,0,1694,3820Zm15,21v-18s6.49-12.71,16-3c-0.18-.09,9.58-9.72,16,2-0.12-.04,0,19,0,19h-4v-17s-3.98-8.21-10,0v17h-4v-16s-3.61-9.82-10-1v17h-4Zm36,0v-18s6.49-12.71,16-3c-0.18-.09,9.58-9.72,16,2-0.12-.04,0,19,0,19h-4v-17s-3.98-8.21-10,0v17h-4v-16s-3.61-9.82-10-1v17h-4Z" transform="translate(-1681 -3811)"/>
</svg>
