<svg xmlns="http://www.w3.org/2000/svg" width="17.97" height="18" viewBox="0 0 17.97 18">
  <g id="laboratories" transform="translate(-0.773 0.01)">
    <path id="路径_117" data-name="路径 117" d="M17.5,22.207a5.827,5.827,0,1,0-5.827-5.827A5.827,5.827,0,0,0,17.5,22.207Z" transform="translate(-7.718 -7.476)" fill="rgba(0,0,0,0.5)"/>
    <path id="路径_118" data-name="路径 118" d="M14.231,29.354s.07-.057.016-.057h-.373c-.029,0-.062.041-.088.046a.419.419,0,0,0-.122.057.119.119,0,0,0-.065.122v.567c0,.043.049.029.049.081s0,.227.006.246.041.029.038.057a.289.289,0,0,0,.008.127c.016.027,0,.057.051.058s.154.019.154.019a.065.065,0,0,0,.028.035c.024.016.064.051.094.049s.1.008.127-.051.008-.106.035-.127.092-.058.1-.089.043-.058.049-.122.011-.095.029-.108a.1.1,0,0,0,.027-.081.425.425,0,0,1,.019-.138c.013-.024.078-.058.089-.092s.013-.051.032-.068a.117.117,0,0,0,.043-.113c0-.076-.038-.058-.041-.088s0-.081-.005-.13a.151.151,0,0,1,.016-.1c.016-.029.033-.024.029-.078s.022-.1,0-.105a.781.781,0,0,0-.114,0s-.016.068-.019.094a.2.2,0,0,1-.029.094c-.016.016-.027.008-.035.046s-.027.049-.032.065a.478.478,0,0,0-.016.067c-.006.029-.006.068-.024.084s-.029.016-.046.032a.082.082,0,0,1-.035.024.237.237,0,0,1-.035.019c-.016.006.024.019-.016.006s-.024.022-.041-.013-.042-.038-.04-.058-.013-.008,0-.043a.633.633,0,0,0,.021-.088.1.1,0,0,0,.006-.058c-.006-.035-.022-.035.011-.07S14.231,29.354,14.231,29.354Z" transform="translate(-9.078 -20.723)" fill="rgba(0,0,0,0.5)"/>
    <path id="路径_119" data-name="路径 119" d="M15.068,27.8c.038.035.027.068.13.068h.278a.091.091,0,0,0,.088-.068c.006-.038-.022-.046-.046-.065a.294.294,0,0,0-.119-.046c-.027,0-.283.008-.292,0a.377.377,0,0,0-.07-.041.289.289,0,0,0-.076-.011c-.011,0-.027.022-.027.057a.112.112,0,0,0,.032.088.475.475,0,0,0,.1.018Z" transform="translate(-10.022 -19.565)" fill="rgba(0,0,0,0.5)"/>
    <path id="路径_120" data-name="路径 120" d="M23.442,19.676c.058-.005.092-.027.078-.073s-.065-.068-.078-.122a.224.224,0,0,1,.041-.135h.394a.651.651,0,0,0,.068.222,1.234,1.234,0,0,0,.192.094c.019.016.07,0,.032-.032a.3.3,0,0,1-.081-.186v-.2a.187.187,0,0,1,.081-.111c.035-.013.051-.022.094-.041s.054-.008.054-.046.049-.111.054-.189a.517.517,0,0,1,.029-.2c.024-.029.057-.032.106-.035s.123,0,.133-.022.051-.027.088-.029a1.19,1.19,0,0,0,.17,0c.024-.011.041-.051.088-.054s.108.032.117,0a.12.12,0,0,0-.013-.1c-.022-.032-.041-.081-.051-.094s-.022-.054-.051-.054-.113-.043-.094-.078a.184.184,0,0,1,.058-.058s.049.013.038-.029.006-.113-.006-.127-.038-.022-.073-.054a.552.552,0,0,1-.078-.105c-.016-.024-.105-.2-.124-.227s-.1-.081-.141-.024-.34.386-.383.421-.073.035-.078.073a.216.216,0,0,1-.084.117c-.043.035-.135.119-.13.051a.618.618,0,0,0,0-.173c-.011-.068,0-.078-.046-.13s-.051-.049-.062-.092a.241.241,0,0,1,.038-.141c.013-.019.113-.032.119-.092a.2.2,0,0,0-.019-.117.108.108,0,0,1,.027-.106c.027-.029.159-.043.227-.135s.049-.175.068-.211,0-.084.031-.122a.292.292,0,0,0,.05-.095c.006-.016.035-.024.022-.057s-.038-.032-.038-.065a.462.462,0,0,1,.011-.124.175.175,0,0,0,.07-.076c.006-.027-.046-.07-.013-.106s.065-.065.092-.032.157.141.162.151-.02.224.012.251.121.049.117.148a.263.263,0,0,1-.092.175c-.027.038-.051.154-.008.175a.541.541,0,0,1,.132.076c.038.035.07.084.106.1s.084.006.1-.062.019-.108.032-.151.006-.065.041-.088.1-.043.1-.105a.9.9,0,0,0-.073-.3.888.888,0,0,1-.068-.108A.234.234,0,0,0,25,16.557c-.011-.013-.041-.016-.062-.035s-.088-.019-.1-.035-.022-.016-.046-.043a.687.687,0,0,0-.057-.07c-.016-.011-.027-.014-.024-.033a.172.172,0,0,1,.081-.1.314.314,0,0,1,.165-.041c.041.005.092.027.111.013a1.078,1.078,0,0,1,.127-.078c.019-.005.043-.032.068-.024a.888.888,0,0,0,.148,0c.011,0,.019.064-.024.093s-.127.084-.148.143a.259.259,0,0,0-.013.184.244.244,0,0,0,.157.088c.046.008.1-.049.113-.019s.057.108.029.138a.3.3,0,0,0,.032.265c.062.081.162.257.2.324s.281.251.294.286.122.111.154.1.038-.013.035-.032a.345.345,0,0,0-.046-.122.157.157,0,0,1-.019-.119c.006-.038.011-.07.013-.1a.124.124,0,0,1,.052-.113c.058-.051.058-.1.1-.132s.024-.076.013-.113-.022-.035-.038-.057-.022-.019-.029-.041-.049-.1-.029-.138a.106.106,0,0,0,.008-.073.744.744,0,0,0,.1-.041.337.337,0,0,0,0-.157c-.011-.035-.055-.07-.065-.106s.027-.078-.008-.081-.057-.006-.041-.027a1.653,1.653,0,0,0,.135-.108c.041-.049.062-.081.051-.117a.732.732,0,0,0-.148-.17.449.449,0,0,1-.1-.1c-.019-.032-.019-.07-.081-.1s-.089-.057-.122-.041-.073.065-.1.068-.088.016-.089-.005-.032-.027-.07-.019a.1.1,0,0,0-.07.076.928.928,0,0,1-.138.2c-.035.029-.159.011-.184.013a1.054,1.054,0,0,1-.135,0,1.6,1.6,0,0,0-.17-.1.193.193,0,0,0-.208.011c-.094.07-.167.13-.232.127s-.1,0-.117.032a.155.155,0,0,1-.138.108c-.022,0-.073-.016-.073-.016s-.027-.022-.038-.019-.019.029-.016.041a.823.823,0,0,0-.108.2.361.361,0,0,0,.041.224c.019.032.019.076.011.081s-.013,0-.029.022-.005.035-.024.049-.022.011-.043.024a.338.338,0,0,1-.043.024c-.041.022.008.008-.076.041s-.076.057-.141.054a.4.4,0,0,1-.167-.07.207.207,0,0,0-.084-.032c-.008,0-.092.011-.13.019a.2.2,0,0,1-.127-.016.227.227,0,0,1-.046-.07c-.008-.027-.038-.154-.111-.17s-.13-.022-.135-.049a.229.229,0,0,0-.043-.119c-.032-.032-.068-.073-.065-.108a.369.369,0,0,0-.148-.224,1.186,1.186,0,0,0-.327-.029.943.943,0,0,0-.409.232c-.088.108-.111.119-.141.13s-.1.006-.088.058-.057.078.019.135.192.062.195.089.065-.016.07.088-.062.1.013.162.13.076.165.148.088.113.084.162.049.113.062.146a.283.283,0,0,1,.024.151c-.011.057-.07.108-.076.186s-.013.138.005.148.054.041.106.081.051.081.022.119a.708.708,0,0,0-.078.148,1.044,1.044,0,0,0,0,.243,1.368,1.368,0,0,0,.089.419,2.235,2.235,0,0,1,.146.251c.019.038.054-.051.062-.105s.065-.124.092-.1a.258.258,0,0,1,.038.175A.578.578,0,0,0,23,19.47a1.655,1.655,0,0,0,.3.167A.52.52,0,0,0,23.442,19.676Z" transform="translate(-14.85 -11.058)" fill="rgba(0,0,0,0.5)"/>
    <path id="路径_121" data-name="路径 121" d="M26.848,16.589s-.043-.092,0-.124a.385.385,0,0,0,.088-.138.665.665,0,0,0,.057-.127c.005-.027.008-.035-.038-.022a.451.451,0,0,1-.115.011c-.036,0-.069.016-.1-.005s-.054,0-.062-.058a.614.614,0,0,0-.024-.119c-.008-.022-.041-.016-.016-.068s-.011-.088.041-.108.195-.051.165-.088.024-.011-.1-.07-.089-.056-.132-.067a.09.09,0,0,0-.089.016.255.255,0,0,1-.073.051c-.029.016-.043.035-.078.041s-.046-.011-.078.032a1.351,1.351,0,0,0-.111.159c-.032.058-.041.108-.032.108h.281a.493.493,0,0,1-.058.135c-.029.032-.132.1-.122.143a.074.074,0,0,1,0,.058h.192a.171.171,0,0,1,.019.046.245.245,0,0,0,.041.108c.035.049.117.027.13.029a.63.63,0,0,0,.088-.008.633.633,0,0,0,.084.062C26.835,16.611,26.848,16.589,26.848,16.589Z" transform="translate(-17.958 -11.049)" fill="rgba(0,0,0,0.5)"/>
    <path id="路径_122" data-name="路径 122" d="M29.011,16.608a.4.4,0,0,0,.022-.143c-.011-.054-.065-.065-.1-.073s-.089-.035-.117-.038-.043-.005-.027.027a.69.69,0,0,0,.07.122c.024.027.035.062.073.078A.663.663,0,0,0,29.011,16.608Z" transform="translate(-19.823 -11.581)" fill="rgba(0,0,0,0.5)"/>
    <path id="路径_123" data-name="路径 123" d="M22.142,14.97a.659.659,0,0,1,.1-.138c.049-.046.07-.105.111-.132a.343.343,0,0,0,.1-.1c.006-.019.043-.073,0-.065s-.076-.008-.122.024-.138.065-.186.1-.173.1-.2.113-.057.035-.022.049a.276.276,0,0,1,.1.081A.4.4,0,0,0,22.142,14.97Z" transform="translate(-14.958 -10.294)" fill="rgba(0,0,0,0.5)"/>
    <path id="路径_124" data-name="路径 124" d="M18.15,17.43a.208.208,0,0,0,.016-.084c0-.022-.019-.056-.046-.043a.32.32,0,0,0-.076.067.175.175,0,0,1-.043.049c-.016.008-.038.016-.041.035s0,.027-.013.035a.135.135,0,0,1-.038.024.188.188,0,0,0-.049.032c-.027.019-.024.019-.049.038s0,.008-.049.054-.092.07-.1.089-.008-.005-.027.057a.19.19,0,0,1-.062.111c-.043.046-.081.1-.041.084s.062-.057.111-.089.078-.051.1-.07-.005.027.051-.032l.057-.058c.035-.037,0-.013.065-.065s.027-.019.078-.058.038-.041.058-.054.024,0,.035-.022-.024.019.011-.024-.013-.073.016-.073Z" transform="translate(-11.851 -12.251)" fill="rgba(0,0,0,0.5)"/>
    <path id="路径_125" data-name="路径 125" d="M38.162,22.548c.011-.013.046-.051.062-.068s.035-.005.024-.035.016-.088.029-.076.076.022.1.035.046.041.022.065-.106.094-.132.117a.154.154,0,0,1-.088.022c-.011,0-.076.008-.065-.019A.088.088,0,0,1,38.162,22.548Z" transform="translate(-26.427 -15.838)" fill="rgba(0,0,0,0.5)"/>
    <path id="路径_126" data-name="路径 126" d="M38.8,25.608a.186.186,0,0,0,.025-.092.558.558,0,0,1,0-.092c0-.024-.017-.032-.038-.024s-.041.048-.054.1-.013.138-.022.157a.228.228,0,0,0-.029.073c0,.029-.027.049-.011.068a.079.079,0,0,0,.075.019c.017-.008.044.013.055-.035A.9.9,0,0,0,38.8,25.608Z" transform="translate(-26.819 -17.982)" fill="rgba(0,0,0,0.5)"/>
    <path id="路径_127" data-name="路径 127" d="M39.689,24.632a.075.075,0,0,1-.019-.058.358.358,0,0,1,.049-.1c.024-.035.054-.111.092-.1s.032,0,.035.049a1.91,1.91,0,0,0,0,.251.269.269,0,0,1,.043.027c.024.016.013.062.051.088a.112.112,0,0,1,.046.068.282.282,0,0,1-.022.113c-.016.029-.022.054-.032.035s.006-.032-.019-.038-.032-.011-.049,0a.257.257,0,0,1-.073.029c-.024.005-.051.029-.073.035s-.041-.011-.019-.043a.345.345,0,0,0,.046-.127c0-.032.011-.088,0-.1s-.051-.013-.043-.043a.248.248,0,0,0,0-.076Z" transform="translate(-27.529 -17.257)" fill="rgba(0,0,0,0.5)"/>
    <path id="路径_128" data-name="路径 128" d="M40.145,19.593a.433.433,0,0,1,.081-.273c.022-.032.032-.068.092-.084a.283.283,0,0,0,.111-.049,1.453,1.453,0,0,0,.111-.1A.36.36,0,0,0,40.587,19a.15.15,0,0,0,.076-.111.373.373,0,0,1,.029-.175,1.353,1.353,0,0,1,.084-.184c.041-.051.062-.143.105-.189a.331.331,0,0,0,.068-.081,1.169,1.169,0,0,1,0-.2c.016-.058.032-.058.043-.108a.433.433,0,0,0-.065-.192c-.011-.013.008-.011-.049.046a.4.4,0,0,0-.1.132c-.027.054-.054.073-.051.1s-.049.159-.054.2-.013.038-.043.078-.008.041-.038.081-.032.057-.046.073.008.011-.022.042-.054.058-.054.058l-.027.033s-.011.05-.016.065.022.037,0,.061-.013,0-.041.057.006.132-.016.165-.038.076-.038.022a.107.107,0,0,0-.022-.081c-.013-.022-.043-.022-.051-.032a.029.029,0,0,0-.032-.016.189.189,0,0,0-.068.035s-.065.089-.078.089-.006-.035,0-.106a.832.832,0,0,1,.054-.181c0-.013-.016-.068.011-.1a.253.253,0,0,0,.07-.111.52.52,0,0,1,.062-.117c.019-.041.049-.027.035-.068a.514.514,0,0,1,.008-.241c.024-.032.019-.062.054-.092s0-.032.054-.035.113-.032.1-.078-.052-.065-.029-.1a.6.6,0,0,0,.068-.113c.013-.043-.008-.151.029-.2s.035-.148.051-.175-.024-.124,0-.173-.019-.178.029-.157a3.084,3.084,0,0,1,.248.23c.057.046.162.173.216.219s.17.117.138.17-.076.07-.105.1-.038.027-.043.07.022.108.011.141-.008.07-.019.076-.024.073-.011.073a.077.077,0,0,0,.089-.013c.043-.041.035-.006.062-.062a.428.428,0,0,0,.041-.1.438.438,0,0,1,.073-.159c.016,0,.088.049.089.089s-.013.029.051.084a.913.913,0,0,1,.146.222c.027.043.157.238.222.321s.151.2.143.254-.02.135,0,.154a1.021,1.021,0,0,1,.121.2c.019.049.095.2.106.232a1.975,1.975,0,0,0,.081.276.321.321,0,0,1,.049.138c0,.029-.022.011,0,.051s.008.135.029.167.008.054.013.088a.275.275,0,0,0,.041.111.1.1,0,0,1,.027.088c0,.046-.013.135.013.167a.148.148,0,0,1,.029.111c0,.041-.013.138-.029.111a.325.325,0,0,0-.081-.111.186.186,0,0,0-.084-.046.563.563,0,0,0-.151.011,1.16,1.16,0,0,1,.006.151c-.006.029-.013.047.024.074s.043.032.049.073.006.041.022.062a.189.189,0,0,0,.138.051c.068,0,.139.054.109.181a5.653,5.653,0,0,1-.082,1.01,5.844,5.844,0,0,1-.546,1.532c-.178.308-.238.421-.289.413a.1.1,0,0,1-.1-.119.7.7,0,0,1,.022-.2c.019-.051.013-.089.035-.154s-.008-.154.016-.2a.743.743,0,0,0,.062-.251c0-.081-.008-.254-.006-.3s-.019-.081.022-.113a.424.424,0,0,0,.132-.186.115.115,0,0,0-.049-.119c-.019-.022-.113,0-.143.027a1.423,1.423,0,0,1-.17.143.3.3,0,0,1-.319.089c-.213-.049-.248-.022-.338-.065a.658.658,0,0,1-.167-.095c-.038-.035,0-.027-.092-.058a.555.555,0,0,1-.216-.089c-.108-.076-.3-.175-.327-.2a1.759,1.759,0,0,1-.124-.13.253.253,0,0,0-.046-.058c-.038-.038-.041-.024-.057-.068s.051-.081-.013-.186-.078-.157-.058-.181.038-.038.011-.081-.054,0-.024-.073.022-.127.041-.159-.011,0,.027-.065a.27.27,0,0,0,.043-.088c.013-.038,0-.032.036-.092a1.169,1.169,0,0,1,.08-.1.906.906,0,0,1,.327-.167.647.647,0,0,0,.2-.068.156.156,0,0,1,.1-.013c.032.008.122-.011.23,0s.175.027.238-.013.13-.013.211-.113.035-.178.088-.178a.587.587,0,0,1,.173.051c.078.027.049.065.186.058s.216.011.208-.043.016-.062-.008-.073-.057,0-.057-.043a.633.633,0,0,1,.011-.17c.013-.019.038,0,.035-.058s-.016-.086.008-.094l.024-.008a.075.075,0,0,1-.032-.046c-.011-.035,0-.111-.041-.1s-.062.011-.084.032-.008.008-.049.038a1.1,1.1,0,0,0-.1.07c-.041.035,0,.088-.084.105s-.13.051-.111,0,.006-.092.029-.113.046-.054.084-.092.049-.043.049-.078-.022-.046-.029-.043-.046-.019-.035-.019.081,0,.092-.043-.022-.016.011-.043.062-.078.089-.106,0-.022.035-.049,0-.043.057-.065.1-.011.1-.065.019-.154.013-.178-.043,0-.051-.029-.057-.051-.068-.043,0,.027-.041.024a.465.465,0,0,0-.108,0c-.054.005-.148,0-.157.016s-.032.008-.029.049-.043.046-.008.108a.222.222,0,0,1,.046.148,1.138,1.138,0,0,1,.005.184c-.008.046.046.07-.038.1s-.088.027-.117.039-.024.034-.041.047,0,.027-.046.057-.049,0-.065.042-.073.061-.1.039A.363.363,0,0,1,41,19.751c-.019-.022,0,0-.027-.054s-.011-.058-.035-.062-.043-.027-.051.013-.043.124-.005.159.062,0,.054.057.016.092-.032.089-.043.016-.088,0,0,.032-.043-.019-.024-.076-.068-.068a.2.2,0,0,0-.084.046c-.022.013-.029.013-.029.058s-.035.113-.054.106-.057-.068-.07-.046-.106.1-.113.148a.444.444,0,0,1-.068.13c-.013.022.022.019-.024.051s-.035.047-.095.073a.117.117,0,0,1-.1,0c-.016,0-.041-.044-.058-.065a.072.072,0,0,1-.024-.068.218.218,0,0,0,.024-.065c.006-.035.016-.081.022-.117a.152.152,0,0,1,.027-.078.922.922,0,0,0,.1-.159c0-.029.013-.046,0-.058A1.1,1.1,0,0,1,40.145,19.593Z" transform="translate(-27.527 -11.988)" fill="rgba(0,0,0,0.5)"/>
    <path id="路径_129" data-name="路径 129" d="M29.907,33.185c.068,0,.122-.043.119-.089s-.024-.054,0-.1a.4.4,0,0,1,.07-.081.191.191,0,0,0,.051-.062c.024-.046-.011-.024.029-.068s.062-.1.092-.111a.32.32,0,0,0,.106-.1c.008-.024.032-.1,0-.132a.344.344,0,0,0-.127-.068.273.273,0,0,1-.122-.058A1.29,1.29,0,0,1,30,32.219c-.051-.043,0-.054-.076-.07s-.088-.016-.1-.032a1.13,1.13,0,0,1-.058-.106.123.123,0,0,0-.088-.062.271.271,0,0,1-.132-.058.189.189,0,0,1-.054-.1c-.008-.046-.011-.046-.049-.076s-.068-.041-.1-.068a.27.27,0,0,0-.1-.041,1.049,1.049,0,0,1-.1-.041,1.767,1.767,0,0,1-.241-.17c-.029-.032-.051-.105-.117-.088s-.078.073-.138.065-.181-.032-.17-.011.078.057.073.108-.088.138-.108.162a1.183,1.183,0,0,1-.081.119c-.038.038,0,.024-.07.07s-.032.005-.088.084a.374.374,0,0,1-.1.1c-.013.013-.013.038-.029.081s-.013.058-.029.1a.477.477,0,0,0-.022.141.514.514,0,0,0,.078.213c.032.041.038.092.073.117a.3.3,0,0,0,.057.035c.008,0,.094.013.111.065a1.121,1.121,0,0,1,.054.143c0,.035.013.027.038.051A.2.2,0,0,0,28.5,33c.027.013.032,0,.062.032a.181.181,0,0,1,.054.106c.006.046-.016.057-.032.084a1.786,1.786,0,0,0-.027.384.246.246,0,0,1-.058.165c-.029.051-.068.051-.084.078s-.011.035-.016.065.038.189.011.243a.316.316,0,0,0-.041.092.64.64,0,0,0-.019.122.792.792,0,0,0-.024.105.728.728,0,0,1,.024.167.518.518,0,0,1-.038.216c-.011.035-.019.088-.024.113s-.043.092.019.073.088-.07.143-.095.089.008.135-.038.024-.035.078-.065.027,0,.058-.07.046-.065.041-.111-.024-.032-.011-.078-.005-.084.022-.143.041-.084.051-.106,0-.038.076-.1.1-.054.111-.111-.032-.267.013-.311.043-.07.092-.117.051-.07.095-.07a.861.861,0,0,0,.138-.035.206.206,0,0,0,.111-.065c.032-.029.032-.049.054-.078s0,0,.032-.049.013-.043.041-.07.013-.027.068-.065.1-.084.154-.078A.352.352,0,0,0,29.907,33.185Z" transform="translate(-19.288 -22.164)" fill="rgba(0,0,0,0.5)"/>
    <path id="路径_130" data-name="路径 130" d="M1.312,24.867c-.175-.018-.334.023-.366.224-.044.281.259.367.639.427s.7.072.739-.21-.289-.357-.508-.39l-.051.325L1.6,25.218l.08-.509.855.135L2.511,25l-.224-.035v0a.37.37,0,0,1,.2.4c-.068.429-.492.44-.935.37-.415-.066-.843-.212-.771-.666a.459.459,0,0,1,.566-.409Z" transform="translate(0 -17.448)" fill="rgba(0,0,0,0.5)"/>
    <path id="路径_131" data-name="路径 131" d="M2.025,20.815l.088-.261,1.722.112-.069.2-.471-.034-.171.5.393.263-.069.2Zm.953.43.144-.424-.831-.058v0Z" transform="translate(-0.886 -14.554)" fill="rgba(0,0,0,0.5)"/>
    <path id="路径_132" data-name="路径 132" d="M3.494,14.7l.173-.3,1.311.37,0,0L4,13.817l.173-.3,1.443.833-.1.178L4.256,13.8l0,0L5.33,14.853l-.1.178-1.446-.409,0,0,1.261.728-.1.178Z" transform="translate(-1.926 -9.575)" fill="rgba(0,0,0,0.5)"/>
    <path id="路径_133" data-name="路径 133" d="M7.082,11.558l.128-.16,1.3,1.04-.128.16Z" transform="translate(-4.465 -8.074)" fill="rgba(0,0,0,0.5)"/>
    <path id="路径_134" data-name="路径 134" d="M8.723,8.215l.191-.185,1.363.617,0,0-.967-1L9.461,7.5,10.62,8.7l-.2.2L9.094,8.3l0,0,.938.97-.148.143Z" transform="translate(-5.627 -5.316)" fill="rgba(0,0,0,0.5)"/>
    <path id="路径_135" data-name="路径 135" d="M14.269,5.127c-.105-.14-.244-.23-.413-.117-.236.159-.093.438.121.76s.42.559.656.4.064-.453-.058-.637l-.274.183-.094-.14.428-.287.482.719-.128.086-.126-.188,0,0a.37.37,0,0,1-.154.415c-.361.242-.657-.062-.906-.435-.234-.349-.418-.762-.037-1.018a.459.459,0,0,1,.684.137Z" transform="translate(-9.039 -3.385)" fill="rgba(0,0,0,0.5)"/>
    <path id="路径_136" data-name="路径 136" d="M19.938,2.054l.193-.069.5,1.4.638-.225.061.172-.831.3Z" transform="translate(-13.564 -1.412)" fill="rgba(0,0,0,0.5)"/>
    <path id="路径_137" data-name="路径 137" d="M25.039.478l.271-.05.745,1.556-.211.039-.2-.428-.523.1-.038.472-.211.039Zm.092,1.042.44-.082L25.215.685h0Z" transform="translate(-17.055 -0.31)" fill="rgba(0,0,0,0.5)"/>
    <path id="路径_138" data-name="路径 138" d="M29.412,0l.511-.009a.388.388,0,0,1,.434.42.357.357,0,0,1-.237.351v0a.38.38,0,0,1,.3.406c.006.338-.183.479-.531.485l-.453.008Zm.218.715.236,0A.253.253,0,0,0,30.143.43c0-.173-.091-.272-.292-.268l-.231,0Zm.013.78.28,0a.274.274,0,0,0,.286-.313.292.292,0,0,0-.333-.312l-.244,0Z" transform="translate(-20.269 0)" fill="rgba(0,0,0,0.5)"/>
    <path id="路径_139" data-name="路径 139" d="M35.18,1.191c-.065.414-.211.843-.666.771s-.46-.524-.395-.939.212-.843.666-.771S35.246.776,35.18,1.191Zm-.848-.134c-.06.38-.072.7.209.74s.366-.259.428-.639.071-.7-.21-.74-.367.258-.428.639Z" transform="translate(-23.579 -0.18)" fill="rgba(0,0,0,0.5)"/>
    <path id="路径_140" data-name="路径 140" d="M38.9,1.182l.509.175a.39.39,0,0,1,.267.535c-.058.172-.182.332-.38.313v0a.274.274,0,0,1,.132.34l-.08.274c-.052.177-.038.231,0,.276l-.234-.081a.506.506,0,0,1,.026-.246l.072-.249c.058-.222-.055-.276-.154-.31L38.8,2.121l-.243.7-.194-.067Zm-.054.782.192.067a.286.286,0,0,0,.43-.192.263.263,0,0,0-.2-.351l-.232-.08Z" transform="translate(-26.6 -0.844)" fill="rgba(0,0,0,0.5)"/>
    <path id="路径_141" data-name="路径 141" d="M43.167,3.62l.241.133L43,5.429l-.188-.1.117-.458-.468-.256-.329.341-.188-.1Zm-.589.864.393.216.2-.808,0,0Z" transform="translate(-29.138 -2.569)" fill="rgba(0,0,0,0.5)"/>
    <path id="路径_142" data-name="路径 142" d="M46.665,6.856,46.5,6.732l.892-1.186L47.06,5.3l.11-.146L48,5.778l-.109.146-.336-.254Z" transform="translate(-32.364 -3.651)" fill="rgba(0,0,0,0.5)"/>
    <path id="路径_143" data-name="路径 143" d="M50.524,10.2c-.3.289-.681.54-1,.207s-.046-.7.259-.986.681-.54,1-.207S50.829,9.911,50.524,10.2Zm-.591-.623c-.279.265-.48.507-.284.714s.449.018.728-.247.48-.508.284-.713S50.213,9.312,49.933,9.577Z" transform="translate(-34.405 -6.417)" fill="rgba(0,0,0,0.5)"/>
    <path id="路径_144" data-name="路径 144" d="M53.225,12.6l.3.45a.439.439,0,0,1-.605.6l0,0a.274.274,0,0,1-.1.351l-.23.169c-.149.11-.171.16-.169.218l-.136-.206c.01-.049.1-.13.17-.179l.208-.155c.182-.14.124-.253.066-.34l-.153-.232-.619.409-.113-.171Zm-.518.588.112.17a.286.286,0,0,0,.458.109.263.263,0,0,0,.056-.4l-.135-.2Z" transform="translate(-36.138 -8.925)" fill="rgba(0,0,0,0.5)"/>
    <path id="路径_145" data-name="路径 145" d="M55.614,16.94l.091.184-1.492.74-.091-.184Z" transform="translate(-37.757 -11.996)" fill="rgba(0,0,0,0.5)"/>
    <path id="路径_146" data-name="路径 146" d="M56.52,19.231l.292.81-.171.062-.223-.618-.492.177.209.583-.171.062-.209-.582-.562.2.231.643-.171.062-.3-.837Z" transform="translate(-38.345 -13.618)" fill="rgba(0,0,0,0.5)"/>
    <path id="路径_147" data-name="路径 147" d="M57.614,24.63c.172-.032.28-.117.244-.309a.247.247,0,0,0-.317-.221c-.461.088-.041.808-.64.92a.468.468,0,0,1-.582-.418c-.072-.383.1-.533.453-.6l.038.2c-.184.034-.38.083-.323.38a.281.281,0,0,0,.342.23c.464-.088.05-.81.651-.922a.436.436,0,0,1,.542.395.412.412,0,0,1-.371.544Z" transform="translate(-39.302 -16.908)" fill="rgba(0,0,0,0.5)"/>
    <path id="路径_148" data-name="路径 148" d="M4.86,39.271l.067.194-1.578.543-.067-.194Z" transform="translate(-1.776 -27.801)" fill="rgba(0,0,0,0.5)"/>
    <path id="路径_149" data-name="路径 149" d="M6.132,41.923l.13.234-.948,1.159,0,0,1.217-.678.1.18-1.458.812-.138-.247.919-1.125,0,0-1.18.657-.1-.18Z" transform="translate(-2.761 -29.678)" fill="rgba(0,0,0,0.5)"/>
    <path id="路径_150" data-name="路径 150" d="M9.119,47.908l-.136-.154,1.116-.983-.276-.314.137-.12.691.784-.137.12-.278-.316Z" transform="translate(-5.811 -32.802)" fill="rgba(0,0,0,0.5)"/>
    <path id="路径_151" data-name="路径 151" d="M13.5,50.125l.687.521-.11.146-.523-.4-.316.417.493.374-.11.146-.493-.374-.361.474.546.414-.11.146-.709-.538Z" transform="translate(-8.293 -35.483)" fill="rgba(0,0,0,0.5)"/>
    <path id="路径_152" data-name="路径 152" d="M18.17,52.882l.488.229a.438.438,0,0,1-.2.832l0,0a.274.274,0,0,1,.1.351l-.108.263c-.07.171-.062.226-.031.275l-.224-.105a.507.507,0,0,1,.051-.242l.1-.241c.083-.214-.026-.281-.121-.325l-.252-.117-.316.672-.186-.088Zm-.136.773.184.088a.286.286,0,0,0,.448-.146.263.263,0,0,0-.16-.369l-.222-.1Z" transform="translate(-11.81 -37.434)" fill="rgba(0,0,0,0.5)"/>
    <path id="路径_153" data-name="路径 153" d="M23.851,54.915l.26.057.243,1.478h0l.3-1.361.2.044L24.5,56.764l-.276-.06-.236-1.432h0l-.287,1.32-.2-.044Z" transform="translate(-16.083 -38.873)" fill="rgba(0,0,0,0.5)"/>
    <path id="路径_154" data-name="路径 154" d="M30.162,55.833l.276,0,.476,1.661-.215,0-.127-.456-.533.008-.117.46-.215,0Zm-.084,1.044.449-.007-.226-.8h0Z" transform="translate(-20.479 -39.52)" fill="rgba(0,0,0,0.5)"/>
    <path id="路径_155" data-name="路径 155" d="M35.426,56.759l-.2.04-.287-1.458-.409.081-.035-.179,1.025-.2.035.179-.413.081Z" transform="translate(-23.865 -38.962)" fill="rgba(0,0,0,0.5)"/>
    <path id="路径_156" data-name="路径 156" d="M39.65,54.277l.193-.072.585,1.563-.193.072Z" transform="translate(-27.515 -38.37)" fill="rgba(0,0,0,0.5)"/>
    <path id="路径_157" data-name="路径 157" d="M44.054,52.7c.214.362.375.786-.022,1.02s-.69-.111-.9-.473-.375-.786.022-1.02S43.841,52.337,44.054,52.7Zm-.74.438c.2.332.388.582.633.438s.117-.434-.078-.765-.388-.582-.633-.438-.118.433.079.765Z" transform="translate(-29.821 -36.915)" fill="rgba(0,0,0,0.5)"/>
    <path id="路径_158" data-name="路径 158" d="M46.908,48.681,47.1,48.5l1.36.627,0,0L47.5,48.113l.149-.142L48.8,49.178l-.2.2-1.32-.608,0,0,.932.977-.149.142Z" transform="translate(-32.652 -33.958)" fill="rgba(0,0,0,0.5)"/>
    <path id="路径_159" data-name="路径 159" d="M51.363,44.918l.153-.229,1.637.555-.12.179-.447-.155-.3.443.311.356-.12.179Zm.81.663.25-.373-.789-.272,0,0Z" transform="translate(-35.805 -31.635)" fill="rgba(0,0,0,0.5)"/>
    <path id="路径_160" data-name="路径 160" d="M53.391,41.391l.077-.191,1.377.559.255-.628.169.068-.332.818Z" transform="translate(-37.24 -29.117)" fill="rgba(0,0,0,0.5)"/>
  </g>
</svg>
