<svg xmlns="http://www.w3.org/2000/svg" width="18.973" height="18.42" viewBox="0 0 18.973 18.42">
  <g id="pagcor_Philippine" transform="translate(-242.99 -105.61)">
    <path id="联合_2" data-name="联合 2" d="M9.6,18.42a37.545,37.545,0,0,1-6.656-1.541C1.211,16.146,0,15.079,0,13.2A5.053,5.053,0,0,1,2.226,9.037,6.472,6.472,0,0,1,3.662,8.33,5.857,5.857,0,0,0,4.725,4.807,4.952,4.952,0,0,0,2.442.326C6.27.941,7.79,3.1,7.79,4.667c0,1.443-1.117,2.944-1.955,3.949C8.382,7.952,10.6,6.538,10.761,4.6q.009-.112.009-.226C10.771,2.272,8.506.755,5.8,0c3.64.274,6.266.7,7.846,1.706A3.858,3.858,0,0,1,15.6,5.041a4.205,4.205,0,0,1-2.012,3.7,13.644,13.644,0,0,1-4.472,1.65,9.072,9.072,0,0,0-3.71,1.65,18.894,18.894,0,0,1,2.44.9c-1.7.13-3.317.579-3.317,1.594,0,1.369,2.693,3.187,5.077,3.886Zm3.327-3.361a.868.868,0,0,1,.971-.873,1.933,1.933,0,0,1,.657.128v.452a1.01,1.01,0,0,0-.541-.184.518.518,0,0,0-.565.482.5.5,0,0,0,.537.472,1.075,1.075,0,0,0,.577-.184v.43a1.442,1.442,0,0,1-.673.15A.862.862,0,0,1,12.931,15.059Zm-2.138,0a.841.841,0,0,1,.276-.655,1.076,1.076,0,0,1,.715-.216,2.037,2.037,0,0,1,.693.124v.4a1.05,1.05,0,0,0-.567-.158.521.521,0,0,0-.595.51.481.481,0,0,0,.537.478.931.931,0,0,0,.208-.026v-.2h-.23v-.34h.679v.817a1.984,1.984,0,0,1-.274.088,2.121,2.121,0,0,1-.478.056A.864.864,0,0,1,10.793,15.055Zm4.084,0a.87.87,0,0,1,.967-.873.878.878,0,1,1,0,1.748A.871.871,0,0,1,14.877,15.057Zm.525,0a.442.442,0,1,0,.442-.436A.412.412,0,0,0,15.4,15.057Zm3.021.853-.134-.3c-.15-.342-.238-.362-.392-.362h-.058v.665h-.513v-1.7H18.2a.548.548,0,0,1,.6.529.45.45,0,0,1-.28.424c.1.058.148.09.282.38l.17.37Zm-.583-.967h.11c.244,0,.326-.04.328-.2s-.1-.212-.33-.212h-.108Zm-7.768.967-.138-.344H9.193l-.14.344H8.526l.753-1.7h.569l.751,1.7Zm-.757-.641h.5l-.248-.621ZM7,15.91v-1.7h.851a.544.544,0,0,1,.623.537c0,.226-.148.529-.625.529H7.515v.639Zm.514-.967h.11c.242,0,.326-.034.328-.2s-.086-.212-.33-.212H7.517Zm4.31.37h0Z" transform="translate(242.99 105.61)" fill="#000"/>
  </g>
</svg>
