<svg xmlns="http://www.w3.org/2000/svg" width="27.702" height="19" viewBox="0 0 27.702 19">
  <g id="组_17" data-name="组 17" transform="translate(-1.588)">
    <g id="组_16" data-name="组 16" transform="translate(1.588)">
      <g id="组_13" data-name="组 13" transform="translate(0 6.526)">
        <path id="路径_21" data-name="路径 21" d="M4.287,12.73H6.212v2.761H5.58v-.86a1.8,1.8,0,0,1-.41.52,1.923,1.923,0,0,1-1.278.481c-1.293,0-2.3-1.262-2.3-2.887,0-1.641,1-2.919,2.288-2.919a1.814,1.814,0,0,1,1.657.963v-.86h.584V11.7H5.509a1.646,1.646,0,0,0-.316-.679,1.542,1.542,0,0,0-1.183-.608c-.687,0-1.673.584-1.673,2.3,0,1.333.718,2.328,1.68,2.328a1.645,1.645,0,0,0,1.523-1.318,2.458,2.458,0,0,0,.039-.449H4.287V12.73Z" transform="translate(-1.588 -9.684)" fill="#000"/>
        <path id="路径_22" data-name="路径 22" d="M13.5,16.137H12.3v-.75a1.614,1.614,0,0,1-1.42.829,1.286,1.286,0,0,1-1.365-1.278c0-.8.71-1.207,2.382-1.365.056-.007.229-.023.394-.039V13.1c0-.481-.371-.781-.955-.781-.615,0-.891.2-1.017.749H9.684a1.41,1.41,0,0,1,.474-.868,1.753,1.753,0,0,1,1.136-.362,1.409,1.409,0,0,1,1.61,1.467v2.336h.6v.5Zm-1.207-2.169-.386.047c-1.294.158-1.728.395-1.728.931a.841.841,0,0,0,.876.8,1.29,1.29,0,0,0,1.238-1.1v-.686Z" transform="translate(-4.137 -10.331)" fill="#000"/>
        <path id="路径_23" data-name="路径 23" d="M17.393,12.678a1.592,1.592,0,0,1,1.341-.875.923.923,0,0,1,.987.884,1.665,1.665,0,0,1,.4-.52,1.328,1.328,0,0,1,.907-.363c.647,0,1.025.418,1.025,1.152v2.675h.584v.5H21.448v-2.95c0-.592-.2-.86-.607-.86-.734,0-1.12.884-1.12,1.168v2.146h.607v.5H19.113V13.081c0-.529-.2-.765-.608-.765-.655,0-1.12.813-1.12,1.2v2.114h.6v.5H16.162v-.5h.615V12.378h-.615v-.5h1.231v.8Z" transform="translate(-6.273 -10.319)" fill="#000"/>
        <path id="路径_24" data-name="路径 24" d="M26.627,9.617H27.81v2.454a1.706,1.706,0,0,1,1.388-.939c.955,0,1.681.97,1.681,2.217a1.972,1.972,0,0,1-1.7,2.13,1.644,1.644,0,0,1-1.373-.852v.8H26.6v-.5h.6V10.114h-.576v-.5Zm1.183,4.016a1.31,1.31,0,0,0,1.215,1.325c.726,0,1.192-.655,1.192-1.673,0-.978-.465-1.649-1.168-1.649a1.4,1.4,0,0,0-1.238,1.286v.71Z" transform="translate(-9.629 -9.617)" fill="#000"/>
        <path id="路径_25" data-name="路径 25" d="M33.609,9.617h1.207v5.31h.568v.5H33.6v-.5h.607V10.114h-.6Z" transform="translate(-11.878 -9.617)" fill="#000"/>
        <path id="路径_26" data-name="路径 26" d="M40.553,14.966a1.563,1.563,0,0,1-.339.647,1.717,1.717,0,0,1-1.333.608,1.993,1.993,0,0,1-1.956-2.193,2.014,2.014,0,0,1,1.854-2.2c1.057,0,1.87.82,1.87,2.3H37.579a1.794,1.794,0,0,0,.489,1.254,1.091,1.091,0,0,0,.8.316,1,1,0,0,0,1-.734Zm-.607-1.3a1.51,1.51,0,0,0-.411-1.057,1,1,0,0,0-.7-.261,1.211,1.211,0,0,0-1.128.907,2.269,2.269,0,0,0-.087.411Z" transform="translate(-12.946 -10.327)" fill="#000"/>
      </g>
      <g id="组_14" data-name="组 14" transform="translate(0 13.343)">
        <path id="路径_27" data-name="路径 27" d="M3.561,19.664H4.894l1.53,4.654h.419v.908H5.564L5.2,24.019H3.245l-.363,1.207H1.588v-.908h.426l1.546-4.654Zm.67,1.041-.742,2.462H4.957L4.231,20.7Z" transform="translate(-1.588 -19.664)" fill="#000"/>
        <path id="路径_28" data-name="路径 28" d="M9.285,21.64h1.688v.821h-.426l.584,2.485.694-3.306h1.089l.7,3.266.56-2.446h-.41V21.64h1.7v.821H15.1l-.907,3.4h-1.12l-.7-2.935-.663,2.935H10.571l-.931-3.4H9.285Z" transform="translate(-4.062 -20.299)" fill="#000"/>
        <path id="路径_29" data-name="路径 29" d="M22.512,24.992h.363v.821h-1.31v-.5a1.6,1.6,0,0,1-1.278.584A1.385,1.385,0,0,1,18.8,24.582c0-1.239,1.4-1.373,2.746-1.5-.008-.647-.166-.813-.781-.813a.684.684,0,0,0-.757.639l-1.026-.032a1.547,1.547,0,0,1,1.736-1.388c1.168,0,1.8.529,1.8,1.491v2.012Zm-.986-1.175c-.994.094-1.641.182-1.641.765,0,.347.276.575.694.575a.922.922,0,0,0,.947-.93v-.411Z" transform="translate(-7.119 -20.251)" fill="#000"/>
        <path id="路径_30" data-name="路径 30" d="M27.332,22.246a1.12,1.12,0,0,1,1.057-.757,2.314,2.314,0,0,1,.473.056v.986a2.373,2.373,0,0,0-.513-.055.962.962,0,0,0-1.017.875v1.641h.5v.821H25.888v-.821H26.3V22.413h-.4v-.821h1.436v.655Z" transform="translate(-9.399 -20.251)" fill="#000"/>
        <path id="路径_31" data-name="路径 31" d="M34.616,24.413a1.883,1.883,0,0,1-1.98,1.483,2.066,2.066,0,0,1-2.051-2.217,2.089,2.089,0,0,1,2.059-2.225,1.921,1.921,0,0,1,1.625.86,2.834,2.834,0,0,1,.418,1.578H31.642c.1,1.1.82,1.152,1.018,1.152a.852.852,0,0,0,.86-.631Zm-1.081-1.247a.849.849,0,0,0-.891-.828.982.982,0,0,0-.947.828Z" transform="translate(-10.908 -20.239)" fill="#000"/>
      </g>
      <g id="组_15" data-name="组 15">
        <path id="路径_32" data-name="路径 32" d="M1.6,0H3.726A4.128,4.128,0,0,1,5.3.15a1.449,1.449,0,0,1,.852,1.341A1.11,1.11,0,0,1,5.43,2.619a1.324,1.324,0,0,1,.924,1.388A1.593,1.593,0,0,1,4.563,5.562H1.588V4.655h.434V.907H1.6V0ZM3.158.907V2.256h1.1a.722.722,0,0,0,.8-.71c0-.371-.363-.639-.876-.639Zm0,2.225V4.655H4.326a.812.812,0,0,0,.884-.75c0-.466-.394-.773-.994-.773Z" transform="translate(-1.588)" fill="#000"/>
        <path id="路径_33" data-name="路径 33" d="M13.564,4.749a1.883,1.883,0,0,1-1.98,1.483A2.066,2.066,0,0,1,9.533,4.015a2.088,2.088,0,0,1,2.059-2.224,1.921,1.921,0,0,1,1.625.86,2.84,2.84,0,0,1,.418,1.578H10.59c.1,1.1.82,1.152,1.017,1.152a.852.852,0,0,0,.86-.631ZM12.483,3.5a.85.85,0,0,0-.891-.828.983.983,0,0,0-.947.828Z" transform="translate(-4.142 -0.576)" fill="#000"/>
      </g>
    </g>
  </g>
</svg>
