<svg xmlns="http://www.w3.org/2000/svg" width="17.372" height="20" viewBox="0 0 17.372 20">
  <path id="footer-icon-gamecare" d="M8.028.794v2.6l.334-.02a12.766,12.766,0,0,1,2.555.093,9.281,9.281,0,0,1,2.59.76c.237.109.478.21.714.321a1.057,1.057,0,0,1,.339.243.412.412,0,0,1-.1.675.987.987,0,0,1-.418.114A1.351,1.351,0,0,1,13.2,5.4a6.572,6.572,0,0,0-1.949-.77A9.365,9.365,0,0,0,8.6,4.373c-.184.009-.37.026-.551.038-.025.084-.035,8.164-.011,8.356.053.007.109.014.164.019a10.2,10.2,0,0,0,2.171-.054,8.352,8.352,0,0,0,1.76-.424,5.193,5.193,0,0,0,1.282-.664c.029-.021.057-.043.084-.066l-.007-.023c-.105-.007-.212-.02-.318-.018-.226,0-.452.013-.678.024a6.917,6.917,0,0,1-.991.011,1.137,1.137,0,0,1-.635-.216.945.945,0,0,1-.2-.21.525.525,0,0,1,.13-.724,1.186,1.186,0,0,1,.5-.194,4.481,4.481,0,0,1,1.049-.059c1.133.053,2.266.039,3.4.019a3.7,3.7,0,0,1,.826.059,1.684,1.684,0,0,1,.309.1.662.662,0,0,1,.413.774c-.036.2-.088.388-.138.58-.2.743-.393,1.485-.588,2.228-.046.176-.082.354-.124.53a.8.8,0,0,1-.718.641,1.4,1.4,0,0,1-1.035-.23,1.014,1.014,0,0,1-.2-.18.618.618,0,0,1-.133-.569c.057-.237.132-.47.2-.7.046-.153.1-.3.148-.457.01-.032.015-.066.026-.113A11.168,11.168,0,0,1,8.03,14.3v2.236c-.03.005-.053.011-.074.013s-.054,0-.081,0h-6.4a1.452,1.452,0,0,1-.687-.149,1.477,1.477,0,0,1-.8-1.125,1.128,1.128,0,0,1-.009-.189q0-6.414,0-12.828A1.489,1.489,0,0,1,1.158.816,1.344,1.344,0,0,1,1.4.8q3.253,0,6.508,0ZM8.019,12.774c-.053-.008-.1-.015-.145-.02a7.912,7.912,0,0,1-1.134-.216,6.634,6.634,0,0,1-2.56-1.279,4.364,4.364,0,0,1-.906-1A3.02,3.02,0,0,1,2.814,8.11a3.075,3.075,0,0,1,.717-1.539A5.5,5.5,0,0,1,5.273,5.209a7.978,7.978,0,0,1,2.353-.74c.13-.021.259-.038.387-.057A7.6,7.6,0,0,0,8.006,3.4c-.032,0-.066,0-.1.007-.3.039-.6.071-.9.118a9.765,9.765,0,0,0-2.495.732A7.111,7.111,0,0,0,1.887,6.228,4.01,4.01,0,0,0,.959,8.5,3.967,3.967,0,0,0,1.572,11a5.836,5.836,0,0,0,1.549,1.625,8.463,8.463,0,0,0,2.327,1.156,11.41,11.41,0,0,0,2.194.48c.123.014.246.025.377.038ZM14.978,19.8l.629.918a4.125,4.125,0,0,1-.8.014l-.484-.841-.022,0,0,.274v.553a3.346,3.346,0,0,1-.639.012c-.025-.073-.03-2.666,0-2.778.024,0,.051-.007.076-.007.294,0,.587,0,.88,0a1.708,1.708,0,0,1,.272.021.821.821,0,0,1,.682.752,1.17,1.17,0,0,1-.048.528.8.8,0,0,1-.451.5l-.074.033s0,.005-.013.018Zm-.676-.58a.855.855,0,0,0,.421-.026.281.281,0,0,0,.182-.306.267.267,0,0,0-.2-.282,1.07,1.07,0,0,0-.405-.025ZM11.068,19c-.041,0-.071,0-.1,0-.168,0-.337,0-.505,0a.145.145,0,0,1-.147-.079.664.664,0,0,0-.389-.316.72.72,0,0,0-.885.86.74.74,0,0,0,.6.616.624.624,0,0,0,.628-.276A.24.24,0,0,1,10.5,19.7c.148.009.3,0,.445,0h.108a.645.645,0,0,1-.013.078A1.32,1.32,0,0,1,10,20.765a1.371,1.371,0,0,1-1.628-1.151,1.446,1.446,0,0,1,.866-1.631,1.362,1.362,0,0,1,1.82.956c.005.016.007.033.013.066ZM5.681,20.73c-.041,0-.07.005-.1.005H5.313V17.952h.574c.26.7.508,1.414.77,2.12l.02,0,.765-2.118h.568v2.786H7.674l-.013-.013a.021.021,0,0,1-.006-.008.3.3,0,0,1-.005-.041l.022-2.288c-.043.022-.045.063-.057.095l-.67,1.858-.143.393h-.28l-.844-2.346-.021.006.024,2.339Zm6.281-2.782H12.5l1.029,2.78h-.725l-.134-.39h-.885l-.136.391h-.719l1.03-2.781Zm.532,1.8-.254-.855a5.4,5.4,0,0,0-.252.855h.507Zm4.052-.115v.486h.791v.6c-.07.024-1.25.035-1.441.013-.022-.082-.024-2.684,0-2.78h1.44v.611c-.261.013-.522,0-.789.009v.444h.791v.621Zm-14-.98c-.16,0-.3,0-.442,0a.141.141,0,0,1-.08-.053.908.908,0,0,0-1.158-.168,1.022,1.022,0,0,0-.484.851A1.033,1.033,0,0,0,.951,20.3.913.913,0,0,0,2.1,20c.047-.063.086-.134.128-.2a.633.633,0,0,0,.033-.082h-1.2v-.386h1.66c-.007.066-.01.127-.018.187a1.459,1.459,0,0,1-.524.986,1.348,1.348,0,0,1-2.162-.855,1.44,1.44,0,0,1,.546-1.5,1.158,1.158,0,0,1,.575-.243,1.311,1.311,0,0,1,1.094.286,1.207,1.207,0,0,1,.324.459Zm1.118-.707h.38l1.049,2.785c-.151.007-.286,0-.428,0l-.295-.805H3.33l-.3.8H2.616l1.049-2.782Zm.564,1.578L3.866,18.5h-.02l-.371,1.022Z" transform="translate(0.033 -0.794)" fill="#000"/>
</svg>
