<svg xmlns="http://www.w3.org/2000/svg" width="77.352" height="16" viewBox="0 0 77.352 16">
  <g id="godaddy" transform="translate(-0.59 -0.334)">
    <path id="减去_1" data-name="减去 1" d="M-1067.768-1007.666h-15.642v-16h15.642Zm-7.821-14.242h0a16.353,16.353,0,0,1-2.75,1.073,15.516,15.516,0,0,1-2.923.5,15.463,15.463,0,0,0,.07,2.594,10.739,10.739,0,0,0,1.563,4.775,10.806,10.806,0,0,0,2.819,2.94,4.175,4.175,0,0,0,1.221.605,4.125,4.125,0,0,0,1.221-.605,10.806,10.806,0,0,0,2.819-2.94,10.745,10.745,0,0,0,1.563-4.775,15.594,15.594,0,0,0,.07-2.594h0a15.415,15.415,0,0,1-2.92-.5,16.36,16.36,0,0,1-2.75-1.072Z" transform="translate(1084 1024)" fill="#000"/>
    <path id="路径_49" data-name="路径 49" d="M24.955,20.416v-.77a2.121,2.121,0,0,0-2.243-1.975,2.121,2.121,0,0,0-2.243,1.975v.77h-.591v2.62a1.492,1.492,0,0,0,1.555,1.625h2.512A1.492,1.492,0,0,0,25.5,23.036v-2.62ZM23.377,23.7H22.009l.266-1.263a.557.557,0,0,1-.267-.462.693.693,0,0,1,1.368,0,.557.557,0,0,1-.266.462Zm.924-3.28h-3.21V19.6a1.625,1.625,0,0,1,3.21,0Z" transform="translate(-14.277 -12.833)" fill="#000"/>
    <path id="路径_50" data-name="路径 50" d="M79.369,25.288h.639l.986,3.108H81l1.018-3.108H82.6l-1.289,3.791h-.65Z" transform="translate(-58.309 -18.47)" fill="#000"/>
    <path id="路径_51" data-name="路径 51" d="M97.5,25.781H95.4v1.126h1.327v.482H95.4V28.6H97.5v.482h-2.68V25.288H97.5Z" transform="translate(-69.749 -18.47)" fill="#000"/>
    <path id="路径_52" data-name="路径 52" d="M109.7,27.492h-.6v1.587h-.574V25.288h1.262c.818,0,1.294.439,1.294,1.088a1.053,1.053,0,0,1-.818,1.045l1.029,1.657h-.644Zm.043-1.717H109.1V27h.644c.455,0,.763-.227.763-.628C110.5,25.96,110.194,25.775,109.74,25.775Z" transform="translate(-79.887 -18.47)" fill="#000"/>
    <path id="路径_53" data-name="路径 53" d="M122.15,25.288h.574v3.791h-.574Z" transform="translate(-89.974 -18.47)" fill="#000"/>
    <path id="路径_54" data-name="路径 54" d="M129.312,27.492v1.587h-.574V25.288h2.583v.494h-2.009v1.224h1.469v.487Z" transform="translate(-94.85 -18.47)" fill="#000"/>
    <path id="路径_55" data-name="路径 55" d="M141.617,25.288h.574v3.791h-.574Z" transform="translate(-104.383 -18.47)" fill="#000"/>
    <path id="路径_56" data-name="路径 56" d="M150.88,25.781h-2.107v1.126H150.1v.482h-1.327V28.6h2.107v.482H148.2V25.288h2.681Z" transform="translate(-109.255 -18.47)" fill="#000"/>
    <path id="路径_57" data-name="路径 57" d="M163.063,29.079H161.9V25.288h1.164a1.9,1.9,0,1,1,0,3.791Zm-.081-3.309h-.51V28.6h.509a1.416,1.416,0,1,0,0-2.832Z" transform="translate(-119.396 -18.47)" fill="#000"/>
    <path id="路径_58" data-name="路径 58" d="M185.086,28.89h-.725l-.412-.455a1.231,1.231,0,0,1-1.024.52A1.074,1.074,0,0,1,181.8,27.9a1.437,1.437,0,0,1,.661-1.132,1.189,1.189,0,0,1-.336-.8.939.939,0,0,1,1.007-.937.876.876,0,0,1,.958.845.846.846,0,0,1-.135.466l-.471-.087a.835.835,0,0,0,.087-.314.424.424,0,0,0-.433-.433.438.438,0,0,0-.466.455,1.023,1.023,0,0,0,.33.655c.331.374.845.921.9.986a4.884,4.884,0,0,0,.341-.764h.612A6.935,6.935,0,0,1,184.279,28l.807.872Zm-2.318-1.733a.961.961,0,0,0-.4.715.587.587,0,0,0,.579.579.8.8,0,0,0,.644-.4Z" transform="translate(-134.124 -18.28)" fill="#000"/>
    <path id="路径_59" data-name="路径 59" d="M203.595,25.9a1.3,1.3,0,0,0-.805-.368c-.309,0-.612.162-.612.487,0,.244.162.406.5.579l.314.162c.585.3.909.569.909,1.121a1.126,1.126,0,0,1-1.229,1.078,1.64,1.64,0,0,1-1.24-.525l.309-.4a1.267,1.267,0,0,0,.926.433.6.6,0,0,0,.666-.558c0-.314-.206-.45-.661-.688l-.281-.146c-.5-.26-.785-.569-.785-1.023a1.063,1.063,0,0,1,1.169-1.013,1.728,1.728,0,0,1,1.132.444Z" transform="translate(-148.654 -18.284)" fill="#000"/>
    <path id="路径_60" data-name="路径 60" d="M217.1,25.781H215v1.126h1.327v.482H215V28.6H217.1v.482h-2.68V25.288h2.68Z" transform="translate(-158.271 -18.47)" fill="#000"/>
    <path id="路径_61" data-name="路径 61" d="M228.749,28.462a1.161,1.161,0,0,0,1.164-.823h.612a1.78,1.78,0,0,1-1.771,1.321,1.961,1.961,0,1,1,0-3.92,1.78,1.78,0,0,1,1.771,1.321h-.612a1.161,1.161,0,0,0-1.164-.823,1.465,1.465,0,0,0,0,2.924Z" transform="translate(-167.42 -18.286)" fill="#000"/>
    <path id="路径_62" data-name="路径 62" d="M244.4,27.828v-2.54h.574v2.529a.777.777,0,1,0,1.549,0V25.288h.558v2.54a1.34,1.34,0,1,1-2.681,0Z" transform="translate(-180.459 -18.47)" fill="#000"/>
    <path id="路径_63" data-name="路径 63" d="M260.136,27.492h-.6v1.587h-.574V25.288h1.262c.818,0,1.294.439,1.294,1.088a1.053,1.053,0,0,1-.818,1.045l1.029,1.657h-.644Zm.043-1.717h-.644V27h.644c.455,0,.764-.227.764-.628C260.943,25.96,260.634,25.775,260.179,25.775Z" transform="translate(-191.237 -18.47)" fill="#000"/>
    <path id="路径_64" data-name="路径 64" d="M275.27,25.781h-2.106v1.126h1.325v.482h-1.325V28.6h2.107v.482H272.59V25.288h2.68Z" transform="translate(-201.324 -18.47)" fill="#000"/>
    <path id="路径_65" data-name="路径 65" d="M287.445,29.079h-1.164V25.288h1.164a1.9,1.9,0,1,1,0,3.791Zm-.081-3.309h-.509V28.6h.509a1.416,1.416,0,1,0,0-2.832Z" transform="translate(-211.458 -18.47)" fill="#000"/>
    <path id="路径_66" data-name="路径 66" d="M99.947,46.217h.494l.49,1.7h0l.488-1.7h.479l-.754,2.225H100.7Z" transform="translate(-73.54 -33.961)" fill="#000"/>
    <path id="路径_67" data-name="路径 67" d="M110.387,48.443V46.218h1.637v.4h-1.173v.472h1.088v.383h-1.088v.58h1.225v.4Z" transform="translate(-81.268 -33.962)" fill="#000"/>
    <path id="路径_68" data-name="路径 68" d="M120.13,46.216h1.122a.75.75,0,0,1,.512.17.568.568,0,0,1,.195.449.529.529,0,0,1-.216.469.606.606,0,0,1-.13.067.577.577,0,0,1,.074.036.423.423,0,0,1,.2.381l.011.364a.464.464,0,0,0,.023.154.149.149,0,0,0,.076.073v.059h-.514a.528.528,0,0,1-.032-.149,2.306,2.306,0,0,1-.015-.246l0-.206a.256.256,0,0,0-.088-.213.486.486,0,0,0-.285-.062h-.463v.88h-.465Zm.465.972h.54a.42.42,0,0,0,.27-.074.269.269,0,0,0,.09-.222.275.275,0,0,0-.085-.22.386.386,0,0,0-.257-.074H120.6Z" transform="translate(-88.478 -33.959)" fill="#000"/>
    <path id="路径_69" data-name="路径 69" d="M130.4,46.218h.465v2.225H130.4Z" transform="translate(-96.081 -33.962)" fill="#000"/>
    <path id="路径_70" data-name="路径 70" d="M135.637,46.216h1.122a.75.75,0,0,1,.512.17.568.568,0,0,1,.195.449.528.528,0,0,1-.217.469.6.6,0,0,1-.13.067.581.581,0,0,1,.074.036.423.423,0,0,1,.2.381l.011.364a.464.464,0,0,0,.023.154.149.149,0,0,0,.076.073v.059h-.514a.529.529,0,0,1-.032-.149,2.248,2.248,0,0,1-.015-.246l0-.206a.256.256,0,0,0-.088-.213.487.487,0,0,0-.284-.064H136.1v.88h-.465Zm.465.972h.539a.42.42,0,0,0,.27-.074.269.269,0,0,0,.09-.222.275.275,0,0,0-.085-.22.386.386,0,0,0-.257-.074H136.1Z" transform="translate(-99.957 -33.959)" fill="#000"/>
    <path id="路径_71" data-name="路径 71" d="M146.1,47.606l-.777-1.388h.553l.463.964v0l.435-.966h.527l-.736,1.379v.846H146.1Z" transform="translate(-107.125 -33.962)" fill="#000"/>
    <path id="路径_72" data-name="路径 72" d="M161.777,46.714a.329.329,0,0,0-.139-.252.548.548,0,0,0-.331-.093.44.44,0,0,0-.277.078.26.26,0,0,0-.1.217.169.169,0,0,0,.1.154,2.1,2.1,0,0,0,.437.13,1.593,1.593,0,0,1,.65.251.567.567,0,0,1,.164.453.588.588,0,0,1-.247.5,1.093,1.093,0,0,1-.668.184,1.01,1.01,0,0,1-.66-.2.725.725,0,0,1-.254-.556h.448a.346.346,0,0,0,.129.273.532.532,0,0,0,.338.1.7.7,0,0,0,.347-.072.221.221,0,0,0,.125-.2.2.2,0,0,0-.09-.185,1.277,1.277,0,0,0-.376-.124,1.982,1.982,0,0,1-.708-.256.5.5,0,0,1-.175-.424.627.627,0,0,1,.234-.514.978.978,0,0,1,.634-.19.914.914,0,0,1,.608.2.736.736,0,0,1,.26.531Z" transform="translate(-118.327 -33.79)" fill="#000"/>
    <path id="路径_73" data-name="路径 73" d="M170.65,48.443V46.218h1.637v.4h-1.173v.472H172.2v.383h-1.088v.58h1.225v.4Z" transform="translate(-125.872 -33.962)" fill="#000"/>
    <path id="路径_74" data-name="路径 74" d="M181.989,47.491a.914.914,0,0,1-.3.613.967.967,0,0,1-.661.227.944.944,0,0,1-.745-.313A1.236,1.236,0,0,1,180,47.17a1.279,1.279,0,0,1,.276-.865.935.935,0,0,1,.745-.32,1,1,0,0,1,.657.214.857.857,0,0,1,.306.58h-.465a.418.418,0,0,0-.156-.286.523.523,0,0,0-.338-.106.472.472,0,0,0-.406.208.975.975,0,0,0-.147.573.939.939,0,0,0,.146.559.475.475,0,0,0,.407.2.488.488,0,0,0,.338-.118.482.482,0,0,0,.156-.319Z" transform="translate(-132.795 -33.788)" fill="#000"/>
    <path id="路径_75" data-name="路径 75" d="M192.52,47.6a.766.766,0,0,1-.9.9.787.787,0,0,1-.9-.9V46.218h.465v1.4a.52.52,0,0,0,.108.359.418.418,0,0,0,.326.12.432.432,0,0,0,.333-.11.543.543,0,0,0,.1-.369v-1.4h.465Z" transform="translate(-140.722 -33.962)" fill="#000"/>
    <path id="路径_76" data-name="路径 76" d="M201.209,46.216h1.122a.75.75,0,0,1,.512.17.568.568,0,0,1,.195.449.529.529,0,0,1-.216.469.611.611,0,0,1-.13.067.558.558,0,0,1,.074.036.423.423,0,0,1,.2.381l.011.364a.456.456,0,0,0,.023.154.147.147,0,0,0,.076.073v.059h-.515a.515.515,0,0,1-.032-.149,2.314,2.314,0,0,1-.015-.246l0-.206a.256.256,0,0,0-.089-.213.485.485,0,0,0-.284-.064h-.461v.88h-.465Zm.465.972h.539a.421.421,0,0,0,.27-.074.269.269,0,0,0,.09-.222.275.275,0,0,0-.085-.22.385.385,0,0,0-.256-.074h-.557Z" transform="translate(-148.491 -33.959)" fill="#000"/>
    <path id="路径_77" data-name="路径 77" d="M211.471,46.218h.465v2.225h-.465Z" transform="translate(-156.086 -33.962)" fill="#000"/>
    <path id="路径_78" data-name="路径 78" d="M216.649,46.613h-.672v-.4h1.809v.4h-.672v1.83h-.465Z" transform="translate(-159.422 -33.962)" fill="#000"/>
    <path id="路径_79" data-name="路径 79" d="M225.847,47.606l-.777-1.388h.553l.463.964v0l.434-.966h.527l-.736,1.379v.846h-.465Z" transform="translate(-166.152 -33.962)" fill="#000"/>
    <path id="路径_80" data-name="路径 80" d="M240.586,46.218h.465v.834h.87v-.834h.465v2.225h-.465V47.435h-.87v1.008h-.465Z" transform="translate(-177.636 -33.962)" fill="#000"/>
    <path id="路径_81" data-name="路径 81" d="M251.057,48.443V46.218h1.637v.4h-1.173v.472h1.088v.383h-1.088v.58h1.225v.4Z" transform="translate(-185.386 -33.962)" fill="#000"/>
    <path id="路径_82" data-name="路径 82" d="M260.8,46.216h1.122a.75.75,0,0,1,.512.17.568.568,0,0,1,.195.449.528.528,0,0,1-.217.469.6.6,0,0,1-.13.067.583.583,0,0,1,.074.036.423.423,0,0,1,.2.381l.011.364a.465.465,0,0,0,.023.154.149.149,0,0,0,.076.073v.059h-.513a.527.527,0,0,1-.032-.149,2.225,2.225,0,0,1-.015-.246l0-.206a.256.256,0,0,0-.088-.213.487.487,0,0,0-.284-.064h-.463v.88H260.8Zm.465.972h.539a.42.42,0,0,0,.27-.074.269.269,0,0,0,.09-.222.275.275,0,0,0-.086-.22.386.386,0,0,0-.257-.074h-.557Z" transform="translate(-192.598 -33.959)" fill="#000"/>
    <path id="路径_83" data-name="路径 83" d="M271.213,48.443V46.218h1.637v.4h-1.173v.472h1.088v.383h-1.088v.58H272.9v.4Z" transform="translate(-200.305 -33.962)" fill="#000"/>
    <path id="路径_84" data-name="路径 84" d="M134.474,10.629a1.419,1.419,0,0,1-1.1-.448,1.734,1.734,0,0,1-.408-1.213,1.749,1.749,0,0,1,.424-1.238,1.489,1.489,0,0,1,1.148-.458,1.52,1.52,0,0,1,.956.29,1.13,1.13,0,0,1,.439.784h-.665a.54.54,0,0,0-.234-.364.746.746,0,0,0-.46-.156.828.828,0,0,0-.679.3,1.281,1.281,0,0,0-.245.833,1.259,1.259,0,0,0,.234.824.843.843,0,0,0,.688.283h0a.706.706,0,0,0,.6-.295,1.139,1.139,0,0,0,.175-.392V9.373h-.75V8.822h1.334V10.54h-.444l-.065-.412-.039.052a1.077,1.077,0,0,1-.909.448Z" transform="translate(-97.975 -5.133)" fill="#000"/>
    <path id="路径_85" data-name="路径 85" d="M148.535,10.184a1.72,1.72,0,0,1-.414-1.213,1.778,1.778,0,0,1,.414-1.238,1.591,1.591,0,0,1,2.235,0,1.781,1.781,0,0,1,.413,1.237,1.722,1.722,0,0,1-.413,1.213,1.616,1.616,0,0,1-2.235,0Zm1.753-.408a1.277,1.277,0,0,0,.23-.809,1.329,1.329,0,0,0-.23-.828.826.826,0,0,0-1.272,0,1.33,1.33,0,0,0-.23.828,1.281,1.281,0,0,0,.229.809.841.841,0,0,0,1.273,0Z" transform="translate(-109.196 -5.137)" fill="#000"/>
    <path id="路径_86" data-name="路径 86" d="M163.841,7.591H165.2a1.261,1.261,0,0,1,1,.386,1.653,1.653,0,0,1,.341,1.129,1.9,1.9,0,0,1-.354,1.245,1.273,1.273,0,0,1-1.039.426H163.84Zm.665,2.637h.561a.706.706,0,0,0,.607-.274,1.377,1.377,0,0,0,.2-.822,1.223,1.223,0,0,0-.188-.744.668.668,0,0,0-.568-.248h-.615Z" transform="translate(-120.832 -5.37)" fill="#000"/>
    <path id="路径_87" data-name="路径 87" d="M178.216,7.6h.771l1.126,3.185h-.705l-.215-.648h-1.208l-.208.648h-.688Zm-.046,1.989h.845l-.423-1.28h0Z" transform="translate(-130.639 -5.378)" fill="#000"/>
    <path id="路径_88" data-name="路径 88" d="M192.26,7.591h1.363a1.262,1.262,0,0,1,1,.386,1.653,1.653,0,0,1,.341,1.129,1.9,1.9,0,0,1-.354,1.245,1.273,1.273,0,0,1-1.039.426h-1.309Zm.665,2.637h.561a.706.706,0,0,0,.607-.274,1.377,1.377,0,0,0,.2-.822,1.223,1.223,0,0,0-.188-.744.668.668,0,0,0-.568-.248h-.615Z" transform="translate(-141.866 -5.37)" fill="#000"/>
    <path id="路径_89" data-name="路径 89" d="M206.467,7.591h1.363a1.262,1.262,0,0,1,1,.386,1.654,1.654,0,0,1,.341,1.129,1.9,1.9,0,0,1-.354,1.245,1.273,1.273,0,0,1-1.039.426h-1.309Zm.665,2.637h.561a.706.706,0,0,0,.607-.274,1.377,1.377,0,0,0,.2-.822,1.223,1.223,0,0,0-.188-.744.668.668,0,0,0-.567-.248h-.615Z" transform="translate(-152.382 -5.37)" fill="#000"/>
    <path id="路径_90" data-name="路径 90" d="M220.748,9.587,219.637,7.6h.792l.663,1.38v0l.621-1.382h.754l-1.053,1.975v1.211h-.665Z" transform="translate(-162.13 -5.378)" fill="#000"/>
    <path id="路径_91" data-name="路径 91" d="M236,10.506h.844a.564.564,0,0,1,.386.128.427.427,0,0,1,.146.338.4.4,0,0,1-.163.353.454.454,0,0,1-.1.05.427.427,0,0,1,.056.027.318.318,0,0,1,.149.286l.008.274a.346.346,0,0,0,.017.116.112.112,0,0,0,.057.055v.044h-.386a.391.391,0,0,1-.024-.112,1.756,1.756,0,0,1-.011-.185l0-.156a.193.193,0,0,0-.067-.161.364.364,0,0,0-.213-.048h-.348v.662H236Zm.35.731h.405a.317.317,0,0,0,.2-.055.2.2,0,0,0,.068-.167.208.208,0,0,0-.064-.166.29.29,0,0,0-.193-.055h-.419Z" transform="translate(-174.242 -7.529)" fill="#000"/>
    <path id="路径_92" data-name="路径 92" d="M233.781,10.549A1.724,1.724,0,1,1,235.5,8.825,1.724,1.724,0,0,1,233.781,10.549Zm0-3.113a1.389,1.389,0,1,0,1.39,1.389,1.389,1.389,0,0,0-1.39-1.389Z" transform="translate(-171.323 -5.009)" fill="#000"/>
  </g>
</svg>
