<svg id="ico4" xmlns="http://www.w3.org/2000/svg" width="151" height="32" viewBox="0 0 151 32">
  <defs>
    <style>
      .cls-1 {
        fill: #292929;
        fill-rule: evenodd;
      }
    </style>
  </defs>
  <path id="形状_2201" data-name="形状 2201" class="cls-1" d="M2016,3810a16,16,0,1,1-16,16A16,16,0,0,1,2016,3810Zm-4-1h2v17h-2v-17Zm4,10a7,7,0,1,1-2.99.67c0.43-.21-0.3-2.07-0.86-1.81a9.009,9.009,0,1,0,3.85-.86C2015.28,3817,2015.44,3819,2016,3819Zm37.5,0a9.5,9.5,0,1,1-9.5,9.5A9.5,9.5,0,0,1,2053.5,3819Zm0,5a4.5,4.5,0,1,1-4.5,4.5A4.494,4.494,0,0,1,2053.5,3824Zm-15.5-5,5,3v13s-2.21,4.25-5,0C2037.92,3834.98,2038,3819,2038,3819Zm5.5-4a2.5,2.5,0,1,1-2.5,2.5A2.5,2.5,0,0,1,2043.5,3815Zm81,4a9.5,9.5,0,1,1-9.5,9.5A9.5,9.5,0,0,1,2124.5,3819Zm0,5a4.5,4.5,0,1,1-4.5,4.5A4.494,4.494,0,0,1,2124.5,3824Zm-15.5-5,5,3v13s-2.21,4.25-5,0C2108.92,3834.98,2109,3819,2109,3819Zm5.5-4a2.5,2.5,0,1,1-2.5,2.5A2.5,2.5,0,0,1,2114.5,3815Zm-15.5,1v19a2.316,2.316,0,0,0,2,2h5a1.76,1.76,0,0,0,0-3c0.04-.01-2,0-2,0s-1.01-.11-1-2,0-9,0-9h3v-3h-3v-4h-4Zm37,20.4V3819h4.29v1.02s8.07-3.16,10.71,3.07c-0.31-.32,0,13.31,0,13.31s-2.37,3.22-4.29,0c0.01-.11,0-10.23,0-10.23s-3.45-4.58-6.42,0c0.27,0.14,0,10.23,0,10.23S2138.89,3840.02,2136,3836.4Zm-74-16.4h5l4,11,4-11h5l-6,16s-4.31,3.63-6-1C2068.15,3834.96,2062,3820,2062,3820Zm33,16v-14s-6.72-7.6-14,0c0.16-.06-0.24,4.31,3,3-0.34-.2,4.33-4.97,7-1a14.8,14.8,0,0,0,0,2s-10.05-1.3-11,5a5.032,5.032,0,0,0,0,3,5.817,5.817,0,0,0,5.02,3.71H2093S2095,3836.85,2095,3836Zm-4-6v4h-5S2083.1,3829.09,2091,3830Z" transform="translate(-2000 -3810)"/>
</svg>
