<svg xmlns="http://www.w3.org/2000/svg" width="17.906" height="17" viewBox="0 0 17.906 17">
  <g id="itechlabs" transform="translate(-0.927 0.005)">
    <path id="路径_104" data-name="路径 104" d="M19.134,37.874a.335.335,0,0,1-.226-.081.316.316,0,0,1,0-.452.324.324,0,0,1,.224-.087.331.331,0,0,1,.218.079.282.282,0,0,1,.1.23.29.29,0,0,1-.093.229.321.321,0,0,1-.221.082Zm.314.655v1.832a.409.409,0,0,1-.091.288.3.3,0,0,1-.23.1.287.287,0,0,1-.226-.1.421.421,0,0,1-.087-.286V38.547a.407.407,0,0,1,.087-.283.293.293,0,0,1,.226-.1.3.3,0,0,1,.23.1.369.369,0,0,1,.091.264Z" transform="translate(-12.948 -26.974)" fill="#000"/>
    <path id="路径_105" data-name="路径 105" d="M24.995,37.926h-.752V40.4a.455.455,0,0,1-.1.317.32.32,0,0,1-.246.1.324.324,0,0,1-.248-.1.452.452,0,0,1-.1-.316V37.926H22.8a.381.381,0,0,1-.263-.078.264.264,0,0,1-.086-.205.261.261,0,0,1,.089-.209.386.386,0,0,1,.259-.077h2.192a.386.386,0,0,1,.266.079.266.266,0,0,1,.087.207.261.261,0,0,1-.088.205A.39.39,0,0,1,24.995,37.926Z" transform="translate(-15.585 -27.048)" fill="#000"/>
    <path id="路径_106" data-name="路径 106" d="M34.623,42h-1.24a.841.841,0,0,0,.087.381.583.583,0,0,0,.535.331.76.76,0,0,0,.208-.028A.676.676,0,0,0,34.4,42.6a1.4,1.4,0,0,0,.163-.122q.074-.065.193-.176a.208.208,0,0,1,.138-.042.23.23,0,0,1,.158.053.191.191,0,0,1,.06.151.412.412,0,0,1-.067.2.8.8,0,0,1-.2.221,1.156,1.156,0,0,1-.341.175,1.471,1.471,0,0,1-.473.07,1.264,1.264,0,0,1-.95-.348,1.3,1.3,0,0,1-.338-.944,1.577,1.577,0,0,1,.083-.521,1.15,1.15,0,0,1,.244-.412,1.058,1.058,0,0,1,.395-.264,1.417,1.417,0,0,1,.52-.092,1.234,1.234,0,0,1,.637.157,1.031,1.031,0,0,1,.4.405,1.066,1.066,0,0,1,.132.506.315.315,0,0,1-.138.31A.854.854,0,0,1,34.623,42Zm-1.24-.359h1.149a.771.771,0,0,0-.175-.487.524.524,0,0,0-.4-.161.507.507,0,0,0-.389.164A.814.814,0,0,0,33.383,41.64Z" transform="translate(-23.027 -29.36)" fill="#000"/>
    <path id="路径_107" data-name="路径 107" d="M45.352,42.349a.547.547,0,0,1-.071.253.871.871,0,0,1-.216.257,1.117,1.117,0,0,1-.366.2,1.552,1.552,0,0,1-.5.074,1.215,1.215,0,0,1-.917-.343,1.27,1.27,0,0,1-.33-.918,1.512,1.512,0,0,1,.151-.69,1.084,1.084,0,0,1,.437-.463,1.485,1.485,0,0,1,1.134-.092,1.181,1.181,0,0,1,.348.186.891.891,0,0,1,.218.243.481.481,0,0,1,.075.24.253.253,0,0,1-.085.193.291.291,0,0,1-.206.079.207.207,0,0,1-.131-.041.644.644,0,0,1-.117-.131.96.96,0,0,0-.243-.265.6.6,0,0,0-.775.131.95.95,0,0,0-.172.6,1.16,1.16,0,0,0,.044.329.747.747,0,0,0,.128.255.546.546,0,0,0,.2.16.613.613,0,0,0,.26.055.586.586,0,0,0,.326-.088.773.773,0,0,0,.24-.269.62.62,0,0,1,.125-.167.238.238,0,0,1,.166-.06.245.245,0,0,1,.193.088A.283.283,0,0,1,45.352,42.349Z" transform="translate(-30.426 -29.361)" fill="#000"/>
    <path id="路径_108" data-name="路径 108" d="M53.8,37.535v.94a1.355,1.355,0,0,1,.236-.221.848.848,0,0,1,.254-.122,1.066,1.066,0,0,1,.3-.041.879.879,0,0,1,.428.1.794.794,0,0,1,.384.552,2.006,2.006,0,0,1,.023.324v1.215a.42.42,0,0,1-.087.288.3.3,0,0,1-.231.1q-.314,0-.314-.386v-1.07a.981.981,0,0,0-.091-.469.357.357,0,0,0-.344-.164.515.515,0,0,0-.305.1.58.58,0,0,0-.2.264,1.687,1.687,0,0,0-.051.5v.838a.428.428,0,0,1-.085.287.294.294,0,0,1-.236.1q-.314,0-.314-.386V37.535a.435.435,0,0,1,.083-.289.288.288,0,0,1,.231-.1.3.3,0,0,1,.236.1A.428.428,0,0,1,53.8,37.535Z" transform="translate(-37.816 -26.899)" fill="#000"/>
    <path id="路径_109" data-name="路径 109" d="M19.227,51.552v2.013h1.136a.3.3,0,0,1,.208.066.215.215,0,0,1,.073.166.21.21,0,0,1-.072.166.308.308,0,0,1-.21.063H19.01a.293.293,0,0,1-.343-.343v-2.13a.37.37,0,0,1,.076-.255.257.257,0,0,1,.2-.085.267.267,0,0,1,.2.083A.364.364,0,0,1,19.227,51.552Z" transform="translate(-12.839 -37.08)" fill="#000"/>
    <path id="路径_110" data-name="路径 110" d="M28.058,55.781A1.6,1.6,0,0,1,27.7,56a1.011,1.011,0,0,1-.392.073.742.742,0,0,1-.348-.078.573.573,0,0,1-.231-.212.552.552,0,0,1-.081-.291.52.52,0,0,1,.134-.361.67.67,0,0,1,.368-.2l.243-.051q.194-.04.333-.073t.3-.08a.537.537,0,0,0-.083-.3.367.367,0,0,0-.3-.1.628.628,0,0,0-.3.055.48.48,0,0,0-.17.164,1.751,1.751,0,0,1-.1.144.166.166,0,0,1-.126.035.221.221,0,0,1-.15-.055.181.181,0,0,1-.062-.142.436.436,0,0,1,.1-.264.69.69,0,0,1,.3-.211,1.353,1.353,0,0,1,.508-.083,1.435,1.435,0,0,1,.534.08.5.5,0,0,1,.275.254,1.11,1.11,0,0,1,.08.46v.307q0,.126,0,.281a1.035,1.035,0,0,0,.048.3.956.956,0,0,1,.048.2.19.19,0,0,1-.075.144.25.25,0,0,1-.169.065A.228.228,0,0,1,28.223,56,1.1,1.1,0,0,1,28.058,55.781Zm-.034-.745a2.59,2.59,0,0,1-.329.088q-.216.046-.3.068a.407.407,0,0,0-.158.085.218.218,0,0,0-.075.176.261.261,0,0,0,.089.2.328.328,0,0,0,.232.083.6.6,0,0,0,.282-.067.447.447,0,0,0,.19-.173.789.789,0,0,0,.07-.385Z" transform="translate(-18.619 -39.078)" fill="#000"/>
    <path id="路径_111" data-name="路径 111" d="M35.618,51.507v.787a1.2,1.2,0,0,1,.3-.231.789.789,0,0,1,.374-.081.828.828,0,0,1,.45.122.8.8,0,0,1,.3.353,1.3,1.3,0,0,1,.107.548,1.47,1.47,0,0,1-.059.429,1.018,1.018,0,0,1-.173.339.78.78,0,0,1-.275.221.8.8,0,0,1-.356.078.853.853,0,0,1-.224-.028.655.655,0,0,1-.178-.075.8.8,0,0,1-.126-.1q-.052-.049-.138-.147v.051a.311.311,0,0,1-.07.221.232.232,0,0,1-.177.075A.221.221,0,0,1,35.195,54a.325.325,0,0,1-.065-.221V51.53a.377.377,0,0,1,.063-.237.212.212,0,0,1,.176-.08.226.226,0,0,1,.183.076A.331.331,0,0,1,35.618,51.507Zm.025,1.53a.709.709,0,0,0,.141.473.461.461,0,0,0,.369.166.423.423,0,0,0,.335-.169.738.738,0,0,0,.14-.484.949.949,0,0,0-.059-.351.51.51,0,0,0-.166-.227.409.409,0,0,0-.251-.08.448.448,0,0,0-.262.08.533.533,0,0,0-.181.232.9.9,0,0,0-.066.361Z" transform="translate(-24.761 -37.08)" fill="#000"/>
    <path id="路径_112" data-name="路径 112" d="M45.308,55.4a.6.6,0,0,1-.41.6,1.374,1.374,0,0,1-.494.078,1.2,1.2,0,0,1-.476-.085.693.693,0,0,1-.293-.212.428.428,0,0,1-.094-.256.2.2,0,0,1,.06-.145.207.207,0,0,1,.153-.06.179.179,0,0,1,.124.04.434.434,0,0,1,.083.11.564.564,0,0,0,.19.206.572.572,0,0,0,.3.068.434.434,0,0,0,.254-.069.193.193,0,0,0,.1-.158.214.214,0,0,0-.1-.2,1.273,1.273,0,0,0-.339-.119,2.8,2.8,0,0,1-.433-.138.713.713,0,0,1-.267-.192.439.439,0,0,1-.1-.292.516.516,0,0,1,.092-.293.635.635,0,0,1,.273-.221,1.045,1.045,0,0,1,.435-.083,1.43,1.43,0,0,1,.359.041.9.9,0,0,1,.266.11.55.55,0,0,1,.162.155.3.3,0,0,1,.055.166.193.193,0,0,1-.059.145.235.235,0,0,1-.169.057.207.207,0,0,1-.135-.045.888.888,0,0,1-.127-.136.465.465,0,0,0-.138-.121.434.434,0,0,0-.215-.045.421.421,0,0,0-.232.059.173.173,0,0,0-.092.148.16.16,0,0,0,.068.133.563.563,0,0,0,.183.086q.115.034.317.083a1.7,1.7,0,0,1,.391.14.651.651,0,0,1,.23.192A.425.425,0,0,1,45.308,55.4Z" transform="translate(-30.851 -39.083)" fill="#000"/>
    <path id="路径_113" data-name="路径 113" d="M4.4,37.361l.086-.143-.166.006-.058-.156-.083.112a8.929,8.929,0,0,1-3.122-6.29L.927,30.9a9.054,9.054,0,0,0,3.088,6.313l.028.1L3.9,37.4l.153.067-.015.166.147-.078.12.115.031-.164.166-.022Z" transform="translate(0 -22.367)" fill="#000"/>
    <path id="路径_114" data-name="路径 114" d="M5.14,32.05l-.116-.061.022-.129-.12.052-.087-.1-.009.032a4.925,4.925,0,0,1-.17-1.285H4.535a5.046,5.046,0,0,0,.193,1.383l-.054,0,.078.105-.075.107.131,0,.036.126.085-.1.121.05-.024-.129Z" transform="translate(-2.612 -22.13)" fill="#fff"/>
    <path id="路径_115" data-name="路径 115" d="M11.754,33.356l.063-.125-.138.015-.059-.127-.075.118-.045-.011a7.137,7.137,0,0,1-1.251-4.052h-.125a7.262,7.262,0,0,0,1.311,4.177l-.09.069.132.046,0,.14.119-.074.108.089.016-.138.138-.028Z" transform="translate(-6.659 -21.126)" fill="#000"/>
    <path id="路径_116" data-name="路径 116" d="M12.5,7.182a4.058,4.058,0,0,0-.963-.782l.035.185-.3-.121-.208.242L10.977,6.4l-.319-.012.184-.261-.189-.257.319-.018.083-.308.213.238.293-.127-.053.315.282.149-.124.069a4.287,4.287,0,0,1,1.019.83,2.91,2.91,0,0,1,.6,1.5l1.578.012a5.017,5.017,0,0,0-.747-2.256,4.986,4.986,0,0,0-1.22-1.238l.091.282L12.558,5.2l-.243.366-.174-.4L11.7,5.2l.206-.388-.3-.318.432-.081.06-.436.331.288.378-.225-.017.439.411.155-.215.158A5.154,5.154,0,0,1,14.313,6.12a5.2,5.2,0,0,1,.794,2.394l1.149.009A6.642,6.642,0,0,0,14.48,4.516a5.194,5.194,0,0,0-3.259-1.434l-.161-.015a5.518,5.518,0,0,0-.6-.037l.21.5-.535-.1-.259.478-.259-.478-.535.1.212-.5L8.89,2.668l.524-.146.026-.543.442.318.442-.318.026.543.524.146-.138.121c.112.006.231.016.357.03l.154.015a5.428,5.428,0,0,1,3.4,1.5,6.793,6.793,0,0,1,1.859,4.183l.575.008A7.48,7.48,0,0,0,15.794,4.9a6.7,6.7,0,0,0-3.257-2.357v.17l-.193-.124-.179.144L12.142,2.5l-.224-.048.164-.16-.1-.206.227.028.1-.207.12.2.223-.052-.078.216.046.036a6.868,6.868,0,0,1,3.374,2.442,7.606,7.606,0,0,1,1.342,3.771l1.5.008a8.964,8.964,0,0,0-17.906,0h12.1A2.678,2.678,0,0,0,12.5,7.182Z" fill="#000"/>
  </g>
</svg>
