<svg id="ico5" xmlns="http://www.w3.org/2000/svg" width="63" height="30" viewBox="0 0 63 30">
  <defs>
    <style>
      .cls-1 {
        fill: #292929;
      }

      .cls-1, .cls-2, .cls-3 {
        fill-rule: evenodd;
      }

      .cls-2 {
        fill: #424242;
      }

      .cls-3 {
        fill: #999;
      }
    </style>
  </defs>
  <path id="形状_2169" data-name="形状 2169" class="cls-1" d="M1670,3876v9l5,5,9-4,10,9,10-5-5-6-6,3-9-10-9,4Z" transform="translate(-1670 -3865)"/>
  <path id="形状_2169_拷贝" data-name="形状 2169 拷贝" class="cls-2" d="M1695,3870l9-5v9l-4,2Zm-11,16-9,4v-9l9-4v9Zm10,9,10-5-5-6-6,3Z" transform="translate(-1670 -3865)"/>
  <path id="形状_2172" data-name="形状 2172" class="cls-3" d="M1725,3870l8-4v9l-2,1Zm-26,6v8l5,6,9-5,10,10,10-5v-8l-10,5-10-10-8,5Z" transform="translate(-1670 -3865)"/>
</svg>
