<svg xmlns="http://www.w3.org/2000/svg" width="65.622" height="17" viewBox="0 0 65.622 17">
  <g id="threatmetix" transform="translate(0)">
    <path id="路径_161" data-name="路径 161" d="M20.99,5.568H24.3V6.69H23.208v4.859H22.052V6.69H20.99Z" transform="translate(-3.149 -0.835)" fill="#000"/>
    <path id="路径_162" data-name="路径 162" d="M25.414,5.391h1.1V7.546a2.529,2.529,0,0,1,.654-.425,1.687,1.687,0,0,1,.667-.14,1.5,1.5,0,0,1,1.11.456,1.591,1.591,0,0,1,.386,1.159v2.924h-1.1V9.583a4.788,4.788,0,0,0-.073-1.04.726.726,0,0,0-.25-.406A.7.7,0,0,0,27.48,8a.824.824,0,0,0-.58.224,1.185,1.185,0,0,0-.336.61,5.048,5.048,0,0,0-.048.911v1.776h-1.1Z" transform="translate(-3.812 -0.809)" fill="#000"/>
    <path id="路径_163" data-name="路径 163" d="M30.737,7.38h.951v.557a1.19,1.19,0,0,1,.411-.5.991.991,0,0,1,.561-.17,1.039,1.039,0,0,1,.451.114l-.346.955a.765.765,0,0,0-.321-.1.51.51,0,0,0-.433.317A2.9,2.9,0,0,0,31.833,9.8v2h-1.1Z" transform="translate(-4.61 -1.09)" fill="#000"/>
    <path id="路径_164" data-name="路径 164" d="M38.328,9.913h-3.57a1.19,1.19,0,0,0,.413.751,1.3,1.3,0,0,0,.856.279,1.48,1.48,0,0,0,1.069-.435l.935.439a2.21,2.21,0,0,1-.837.734,2.62,2.62,0,0,1-1.159.238,2.3,2.3,0,0,1-1.7-.657,2.235,2.235,0,0,1-.654-1.645,2.31,2.31,0,0,1,.653-1.681,2.192,2.192,0,0,1,1.637-.669,2.274,2.274,0,0,1,1.7.669A2.417,2.417,0,0,1,38.329,9.7Zm-1.11-.875a1.114,1.114,0,0,0-.433-.6,1.258,1.258,0,0,0-.751-.232,1.329,1.329,0,0,0-.814.26,1.451,1.451,0,0,0-.407.574Z" transform="translate(-5.054 -1.09)" fill="#000"/>
    <path id="路径_165" data-name="路径 165" d="M43.187,7.379H44.3V11.8h-1.11v-.467a2.178,2.178,0,0,1-.652.445,1.826,1.826,0,0,1-.709.136,1.969,1.969,0,0,1-1.482-.665,2.32,2.32,0,0,1-.626-1.653,2.38,2.38,0,0,1,.605-1.68,1.928,1.928,0,0,1,1.47-.654,1.87,1.87,0,0,1,.747.15,2.04,2.04,0,0,1,.646.451Zm-1.165.911a1.122,1.122,0,0,0-.855.364,1.312,1.312,0,0,0-.34.935,1.325,1.325,0,0,0,.347.943,1.123,1.123,0,0,0,.85.37,1.143,1.143,0,0,0,.867-.364,1.33,1.33,0,0,0,.344-.954,1.293,1.293,0,0,0-.344-.935,1.158,1.158,0,0,0-.869-.36Z" transform="translate(-5.959 -1.089)" fill="#000"/>
    <path id="路径_166" data-name="路径 166" d="M46.239,5.482h1.11v1.63h.659v.955H47.35v3.464h-1.11V8.068H45.67V7.112h.569Z" transform="translate(-6.852 -0.822)" fill="#000"/>
    <path id="路径_167" data-name="路径 167" d="M50.252,5.568h1.109L52.748,9.74l1.4-4.172h1.1l1.006,5.981h-1.1l-.642-3.777L53.24,11.549h-1L50.987,7.772l-.657,3.777H49.217Z" transform="translate(-7.384 -0.835)" fill="#000"/>
    <path id="路径_168" data-name="路径 168" d="M62.332,9.913h-3.57a1.19,1.19,0,0,0,.413.751,1.294,1.294,0,0,0,.856.279,1.48,1.48,0,0,0,1.069-.435l.935.439a2.21,2.21,0,0,1-.838.734,2.62,2.62,0,0,1-1.159.238,2.29,2.29,0,0,1-1.7-.657,2.235,2.235,0,0,1-.654-1.645,2.31,2.31,0,0,1,.653-1.681,2.192,2.192,0,0,1,1.636-.669,2.274,2.274,0,0,1,1.7.669A2.417,2.417,0,0,1,62.332,9.7Zm-1.11-.875a1.114,1.114,0,0,0-.433-.6,1.258,1.258,0,0,0-.751-.232,1.329,1.329,0,0,0-.814.26,1.451,1.451,0,0,0-.407.574Z" transform="translate(-8.655 -1.09)" fill="#000"/>
    <path id="路径_169" data-name="路径 169" d="M64.02,5.482h1.11v1.63h.657v.955h-.659v3.464H64.02V8.068h-.569V7.112h.569Z" transform="translate(-9.52 -0.822)" fill="#000"/>
    <path id="路径_170" data-name="路径 170" d="M66.592,7.38h.951v.557a1.19,1.19,0,0,1,.411-.5.99.99,0,0,1,.561-.17,1.04,1.04,0,0,1,.451.114l-.346.955a.765.765,0,0,0-.323-.1.51.51,0,0,0-.433.317A2.9,2.9,0,0,0,67.688,9.8v2h-1.1Z" transform="translate(-9.99 -1.09)" fill="#000"/>
    <path id="路径_171" data-name="路径 171" d="M70.418,5.257a.68.68,0,0,1,.5.212.7.7,0,0,1,.209.51.694.694,0,0,1-.207.51.671.671,0,0,1-.495.209.68.68,0,0,1-.5-.213.719.719,0,0,1,.5-1.226Zm-.555,1.821h1.113V11.5H69.863Z" transform="translate(-10.459 -0.789)" fill="#000"/>
    <path id="路径_172" data-name="路径 172" d="M71.885,7.4h1.289l.875,1.206.87-1.206h1.267l-1.5,2.082,1.7,2.342h-1.29l-1.052-1.448L72.994,11.82H71.727L73.4,9.5Z" transform="translate(-10.761 -1.11)" fill="#000"/>
    <path id="路径_173" data-name="路径 173" d="M5.364,4.255a.524.524,0,0,0-.742,0L.154,8.723A.525.525,0,1,0,.9,9.465L5.364,5a.524.524,0,0,0,0-.741Z" transform="translate(0 -0.615)" fill="#000"/>
    <path id="路径_174" data-name="路径 174" d="M11.642,9.163a.524.524,0,0,0-.742,0l-5.1,5.1A.525.525,0,1,0,6.542,15l5.1-5.1a.524.524,0,0,0,0-.742Z" transform="translate(-0.847 -1.352)" fill="#000"/>
    <path id="路径_175" data-name="路径 175" d="M13.073,3.917a.524.524,0,0,0-.742,0L6.982,9.266a.525.525,0,1,0,.742.742l5.349-5.349a.524.524,0,0,0,0-.742Z" transform="translate(-1.024 -0.565)" fill="#000"/>
    <path id="路径_176" data-name="路径 176" d="M17.216,7.69a.524.524,0,0,0-.742,0L13.22,10.944a.525.525,0,1,0,.742.742l3.254-3.254A.524.524,0,0,0,17.216,7.69Z" transform="translate(-1.96 -1.131)" fill="#000"/>
    <path id="路径_177" data-name="路径 177" d="M11.584,2.035a.524.524,0,0,0-.742,0L7.728,5.15a.525.525,0,1,0,.742.742l3.115-3.115a.524.524,0,0,0,0-.742Z" transform="translate(-1.136 -0.282)" fill="#000"/>
    <path id="路径_178" data-name="路径 178" d="M19.443,9.561a.524.524,0,0,0-.742,0l-1.228,1.233a.525.525,0,1,0,.742.742L19.448,10.3a.524.524,0,0,0-.005-.742Z" transform="translate(-2.598 -1.411)" fill="#000"/>
    <path id="路径_179" data-name="路径 179" d="M15.55,13.163h0v-.988a.524.524,0,0,0-1.049,0v.739L9.562,17.852a.525.525,0,1,0,.742.742L15.4,13.5A.522.522,0,0,0,15.55,13.163Z" transform="translate(-1.412 -1.748)" fill="#000"/>
    <path id="路径_180" data-name="路径 180" d="M11.675,13.5v-.844a.524.524,0,1,0-1.049,0V13.4L7.679,16.344a.525.525,0,0,0,.742.742l3.11-3.111A.524.524,0,0,0,11.675,13.5Z" transform="translate(-1.129 -1.82)" fill="#000"/>
    <path id="路径_181" data-name="路径 181" d="M6.16,7.682V6.838a.524.524,0,0,0-1.049,0v.739L2.035,10.654a.525.525,0,1,0,.742.742l3.239-3.24A.524.524,0,0,0,6.16,7.682Z" transform="translate(-0.282 -0.947)" fill="#000"/>
    <path id="路径_182" data-name="路径 182" d="M8.2,3.357V2.618L9.921.9A.524.524,0,1,0,9.179.154L7.292,2.04a.524.524,0,0,0-.144.473v.844a.524.524,0,0,0,1.049,0Z" transform="translate(-1.071 0)" fill="#000"/>
    <path id="路径_183" data-name="路径 183" d="M14.569,8.395V7.655L15.68,6.542a.525.525,0,1,0-.742-.742L13.663,7.075a.524.524,0,0,0-.144.473v.847a.524.524,0,0,0,1.049,0Z" transform="translate(-2.027 -0.847)" fill="#000"/>
    <path id="路径_184" data-name="路径 184" d="M5.827,12.171v-.844a.524.524,0,1,0-1.049,0v.739l-.861.858a.525.525,0,1,0,.742.742l1.024-1.024A.524.524,0,0,0,5.827,12.171Z" transform="translate(-0.565 -1.621)" fill="#000"/>
  </g>
</svg>
